<?xml version="1.0" standalone="no"?>
<!DOCTYPE svg PUBLIC "-//W3C//DTD SVG 1.1//EN" "http://www.w3.org/Graphics/SVG/1.1/DTD/svg11.dtd">
<svg xmlns="http://www.w3.org/2000/svg">
<metadata>Copyright (C) 2015 by original authors @ fontello.com</metadata>
<defs>
<font id="icons-font" horiz-adv-x="1000" >
<font-face font-family="icons-font" font-weight="400" font-stretch="normal" units-per-em="1000" ascent="850" descent="-150" />
<missing-glyph horiz-adv-x="1000" />
<glyph glyph-name="chat" unicode="&#xe800;" d="m786 421q0-77-53-143t-143-104-197-38q-48 0-98 9-70-49-155-72-21-5-48-9h-2q-6 0-12 5t-6 12q-1 1-1 3t1 4 1 3l1 3t2 3 2 3 3 3 2 2q3 3 13 14t15 16 12 17 14 21 11 25q-69 40-108 98t-40 125q0 78 53 144t143 104 197 38 197-38 143-104 53-144z m214-142q0-67-40-126t-108-98q5-14 11-25t14-21 13-16 14-17 13-14q0 0 2-2t3-3 2-3 2-3l1-3t1-3 1-4-1-3q-2-8-7-13t-13-4q-27 4-48 9-85 23-155 72-50-9-98-9-151 0-263 74 32-3 49-3 90 0 172 25t148 72q69 52 107 119t37 141q0 43-13 85 72-39 114-99t42-128z" horiz-adv-x="1000" />
<glyph glyph-name="phone" unicode="&#xe801;" d="m786 158q0-15-6-39t-12-38q-11-28-68-60-52-28-103-28-16 0-30 2t-32 7-26 8-31 11-28 10q-54 20-97 47-72 44-148 120t-120 148q-27 43-46 97-2 5-10 28t-12 31-8 26-7 32-2 29q0 52 29 104 31 56 59 68 14 6 38 12t39 6q8 0 12-2 10-3 30-43 6-10 16-30t20-35 17-30q2-2 10-14t12-20 4-16q0-11-16-28t-35-30-34-30-16-25q0-5 3-13t4-11 8-14 7-10q42-77 97-132t131-97q1 0 10-6t14-8 11-5 13-2q10 0 25 15t30 35 31 35 28 16q7 0 15-4t20-12 14-10q14-8 30-17t35-20 31-17q39-19 42-29 2-4 2-12z" horiz-adv-x="785.7" />
<glyph glyph-name="facebook" unicode="&#xe802;" d="m535 843v-147h-87q-48 0-65-20t-17-60v-106h164l-22-165h-142v-424h-171v424h-142v165h142v122q0 104 58 161t155 57q82 0 127-7z" horiz-adv-x="571.4" />
<glyph glyph-name="linkedin" unicode="&#xe803;" d="m195 501v-553h-184v553h184z m12 171q0-41-29-68t-75-27h-1q-46 0-74 27t-28 68q0 41 29 68t75 27 74-27 29-68z m650-407v-317h-183v296q0 59-23 92t-71 33q-35 0-58-19t-36-48q-6-17-6-45v-309h-184q1 223 1 361t0 165l-1 27h184v-80h-1q11 18 23 31t31 29 49 24 64 9q95 0 153-63t58-186z" horiz-adv-x="857.1" />
<glyph glyph-name="twitter" unicode="&#xe804;" d="m904 622q-37-54-90-93 0-8 0-23 0-73-21-145t-64-139-103-117-144-82-181-30q-151 0-276 81 19-3 43-3 126 0 224 77-59 2-105 36t-64 89q19-2 34-2 24 0 48 6-63 13-104 62t-41 115v2q38-21 82-23-37 25-59 64t-22 86q0 49 25 91 68-83 164-133t208-55q-5 21-5 41 0 75 53 127t127 53q79 0 132-57 61 12 114 44-20-64-79-100 52 6 104 28z" horiz-adv-x="928.6" />
<glyph glyph-name="gplus" unicode="&#xe805;" d="m410 406q0-20 18-40t43-37 51-41 43-59 18-79q0-50-27-96-40-68-118-101t-166-32q-74 0-138 24t-95 76q-21 34-21 73 0 46 25 84t66 64q73 46 225 56-18 24-26 41t-9 41q0 20 12 48-26-3-38-3-83 0-139 54t-57 137q0 45 20 88t55 73q43 37 102 55t122 18h233l-77-49h-73q41-35 62-74t21-90q0-40-13-72t-33-52-39-36-33-34-14-37z m-81 53q21 0 43 10t37 24q30 32 30 89 0 32-10 69t-27 73-47 57-65 23q-24 0-46-11t-37-29q-26-33-26-89 0-26 5-55t18-57 29-52 42-37 54-15z m1-487q32 0 62 7t55 22 41 41 15 61q0 14-4 27t-8 24-15 23-16 19-22 20-20 16-23 16-21 15q-8 1-26 1-30 0-59-4t-60-14-54-25-38-42-15-59q0-39 19-69t51-46 67-25 71-8z m452 489h119v-60h-119v-122h-59v122h-118v60h118v121h59v-121z" horiz-adv-x="928.6" />
<glyph glyph-name="lifebuoy" unicode="&#xe806;" d="m500 850q102 0 194-40t160-106 106-160 40-194-40-194-106-160-160-106-194-40-194 40-160 106-106 160-40 194 40 194 106 160 160 106 194 40z m0-71q-106 0-201-51l108-108q46 16 93 16t93-16l108 108q-95 51-201 51z m-378-630l108 108q-16 46-16 93t16 93l-108 108q-51-95-51-201t51-201z m378-228q106 0 201 51l-108 108q-46-16-93-16t-93 16l-108-108q95-51 201-51z m0 215q89 0 152 63t62 151-62 152-152 62-151-62-63-152 63-151 151-63z m270 121l108-108q51 95 51 201t-51 201l-108-108q16-46 16-93t-16-93z" horiz-adv-x="1000" />
<glyph glyph-name="briefcase" unicode="&#xe807;" d="m357 707h286v72h-286v-72z m643-357v-268q0-37-26-63t-63-26h-822q-36 0-63 26t-26 63v268h375v-89q0-15 11-25t25-11h178q15 0 25 11t11 25v89h375z m-429 0v-71h-142v71h142z m429 268v-215h-1000v215q0 37 26 63t63 26h197v89q0 23 15 38t38 16h322q22 0 38-16t15-38v-89h197q37 0 63-26t26-63z" horiz-adv-x="1000" />
<glyph glyph-name="article" unicode="&#xe808;" d="m833 923l-156-246c-6-8-19-8-25-3-7 6-10 15-6 23l162 260c2 3 6 6 9 6 5 2 8 0 12-1l133-85c3-2 6-6 6-9 2-5 0-8-1-12l-424-685c0-2-1-2-3-3l-105-99c-1-3-6-4-9-4l0 0c-3 0-6 0-7 3-6 3-9 10-6 16l42 138c0 2 1 3 1 3l418 672m-274-1047h-542c-13 0-23 10-23 23s10 22 23 22h542c13 0 23-10 23-22s-10-23-23-23z m0 91h-542c-13 0-23 10-23 23s10 23 23 23h542c13 0 23-11 23-23s-10-23-23-23z m-188 91h-354c-13 0-23 10-23 23s10 23 23 23h354c12 0 22-11 22-23s-10-23-22-23z" horiz-adv-x="1000" />
<glyph glyph-name="attorney" unicode="&#xe809;" d="m498 797c-112 0-203-89-203-200 0-111 91-323 203-323s203 212 203 323c0 111-91 200-203 200l0 0z m228-533c-10-14 24-222-81-361h344c0 0 19 361-263 361l0 0z m-456-2c-251 0-259-359-259-359h340c-104 138-71 345-81 359l0 0z m266-72h-72l-39-192 75-95 75 95-39 192 0 0z" horiz-adv-x="1000" />
<glyph glyph-name="document" unicode="&#xe80a;" d="m601 568v282h-447v-1000h729v718h-282z m174-527h-513v38h513c0 0 0-38 0-38z m0 148h-513v38h513c0 0 0-38 0-38z m0 148h-513v38h513c0 0 0-38 0-38z m-142 513l250-252h-250v252z" horiz-adv-x="1000" />
<glyph glyph-name="spin5" unicode="&#xe80b;" d="m462 850c-6 0-11-5-11-11l0-183 0 0c0-6 5-11 11-11l69 0c1 0 1 0 1 0 7 0 12 5 12 11l0 183 0 0c0 6-5 11-12 11l-69 0c0 0 0 0-1 0z m250-47c-4 1-8-2-10-5l-91-158 0 0c-4-6-2-13 4-16l60-35c0 0 0 0 0 0 6-3 13-1 16 4l91 158c3 6 2 13-4 16l-61 35c-1 1-3 1-5 1z m-428-2c-2 0-4-1-6-2l-61-35c-5-3-7-10-4-16l91-157c0 0 0 0 0 0 3-6 10-8 16-5l61 35c5 4 7 11 4 16l-91 157c0 1 0 1 0 1-2 4-6 6-10 6z m620-163c-2 0-4 0-6-1l-157-91c0 0 0 0 0 0-6-3-8-10-5-16l35-61c4-5 11-7 16-4l157 91c1 0 1 0 1 0 6 3 7 10 4 16l-35 61c-2 3-6 5-10 5z m-810-4c-5 0-9-2-11-6l-35-61c-3-5-1-12 4-15l158-92 0 0c6-3 13-1 16 5l35 60c0 0 0 0 0 0 3 6 1 13-4 16l-158 91c-2 1-4 2-5 2z m712-235l0 0c-6 0-11-5-11-11l0-69c0-1 0-1 0-1 0-7 5-12 11-12l183 0 0 0c6 0 11 5 11 12l0 69c0 0 0 0 0 1 0 6-5 11-11 11l-183 0z m-794-5l0 0c-7 0-12-5-12-12l0-69c0 0 0 0 0-1 0-6 5-11 12-11l182 0 0 0c6 0 11 5 11 11l0 69c0 1 0 1 0 1 0 7-5 12-11 12l-182 0z m772-153c-4 0-8-2-10-6l-34-60c-1 0-1 0-1 0-3-6-1-13 4-16l158-91c6-3 13-2 16 4l35 61c3 5 1 12-4 15l-158 91 0 0c-2 1-4 2-6 2z m-566-5c-1 0-3 0-5-1l-157-91c0 0-1 0-1 0-5-3-7-11-4-16l35-61c3-5 10-7 16-4l157 91c0 0 0 0 0 0 6 3 8 10 5 16l-35 61c-3 3-7 5-11 5z m468-121c-2 0-4 0-6-1l-61-35c-5-4-7-11-4-16l91-157c0-1 0-1 0-1 3-6 11-7 16-4l61 35c5 3 7 10 4 16l-91 157c0 0 0 0 0 0-2 4-6 6-10 6z m-367-3c-4 1-8-2-10-5l-91-158c-3-6-1-13 4-16l61-35c5-3 12-1 15 4l92 158 0 0c3 6 1 13-5 16l-60 34c0 1 0 1 0 1-2 1-4 1-6 1z m149-57c-7 0-12-5-12-11l0-183 0 0c0-6 5-11 12-11l69 0c0 0 0 0 1 0 6 0 11 5 11 11l0 183 0 0c0 6-5 11-11 11l-69 0c-1 0-1 0-1 0z" horiz-adv-x="1000" />
<glyph glyph-name="download" unicode="&#xe80c;" d="m500 684c124 0 231-67 289-171 116-21 207-121 207-246 0-138-112-251-248-251h-537c-116 0-206 92-206 209 0 104 74 192 173 204 37 146 165 255 322 255z m73-405v196h-139v-196h-105l174-179 175 179h-105z" horiz-adv-x="1000" />
<glyph glyph-name="search" unicode="&#xe80d;" d="m360 849c-196 0-356-159-356-356 0-196 160-355 356-355 197 0 357 159 357 355 0 197-160 356-357 356l0 0 0 0z m0-621c-146 0-266 118-266 265 0 147 119 266 266 266s267-119 267-266c0-146-120-265-267-265l0 0 0 0z m640-256l-113-113-262 261c0 0 48 5 78 35 30 30 35 78 35 78l262-261 0 0z m-630 684c40 0 25 30-30 30-94 0-170-76-170-168 0-54 30-69 30-30 0 93 76 168 170 168l0 0 0 0z" horiz-adv-x="1000" />
<glyph glyph-name="time_response" unicode="&#xe80e;" d="m552 800c-1 0-2 0-3 0-26 0-44-21-44-47 0-26 10-47 49-48v0c185-2 348-162 348-358 0-198-161-361-358-361-187 0-342 142-356 329h83l-128 214-127-214h78c14-236 210-424 449-424 248 0 450 204 450 455 0 247-197 449-441 454l0 0z m41-221c0 22-18 42-40 42h-9c-22 0-39-20-39-42v-238l-116-117c-17-17-16-45 0-62 16-18 45-18 62 0l128 129c1 1 1 2 2 3 7 7 12 17 12 28l0 257 0 0z" horiz-adv-x="1000" />
<glyph glyph-name="cw" unicode="&#xe80f;" d="m408 760q168 0 287-116t123-282l122 0-184-206-184 206 144 0q-4 124-94 210t-214 86q-126 0-216-90t-90-218q0-126 90-216t216-90q104 0 182 60l70-76q-110-88-252-88-168 0-288 120t-120 290 120 290 288 120z" horiz-adv-x="940" />
<glyph glyph-name="location" unicode="&#xe810;" d="m506 845c-200 0-363-150-363-335 0-4 1-8 1-12 1-36 8-69 20-101 78-235 342-542 342-542s265 307 342 542c13 32 20 65 21 101 0 4 0 8 0 12 0 185-162 335-363 335l0 0z m0-499c-98 0-177 73-177 164 0 90 79 164 177 164 99 0 178-74 178-164 0-91-79-164-178-164l0 0z" horiz-adv-x="1000" />
<glyph glyph-name="experience" unicode="&#xe811;" d="m872 844h-728c-21 0-39-16-39-36v-916c0-20 18-36 39-36h728c22 0 39 16 39 36v916c0 20-17 36-39 36l0 0z m-675-201c0 59 51 107 113 107 62 0 112-48 112-107 0-43-27-80-66-97v-97l-46 23-46-23v97c-39 17-67 54-67 97l0 0z m586-594h-549v35h549v-35l0 0z m0 142h-549v34h549v-34l0 0z m0 142h-549v34h549v-34l0 0z m0 142h-298v34h298v-34l0 0z m0 142h-298v34h298v-34l0 0z" horiz-adv-x="1000" />
<glyph glyph-name="email" unicode="&#xe812;" d="m0 62l0 576q0 1 3 19l339-290-338-325q-4 14-4 20z m45 635q7 3 17 3l913 0q9 0 18-3l-340-291-45-36-89-73-89 73-45 36z m1-694l341 327 132-107 132 107 341-327q-8-3-17-3l-913 0q-8 0-16 3z m650 364l338 290q3-9 3-19l0-576q0-9-3-20z" horiz-adv-x="1037" />
<glyph glyph-name="list-bullet" unicode="&#xe813;" d="m214 64q0-44-31-76t-76-31-76 31-31 76 31 76 76 31 76-31 31-76z m0 286q0-45-31-76t-76-31-76 31-31 76 31 76 76 31 76-31 31-76z m786-232v-107q0-7-5-13t-13-5h-678q-8 0-13 5t-5 13v107q0 7 5 12t13 6h678q7 0 13-6t5-12z m-786 518q0-45-31-76t-76-31-76 31-31 76 31 76 76 31 76-31 31-76z m786-232v-108q0-7-5-12t-13-5h-678q-8 0-13 5t-5 12v108q0 7 5 12t13 5h678q7 0 13-5t5-12z m0 285v-107q0-7-5-12t-13-6h-678q-8 0-13 6t-5 12v107q0 8 5 13t13 5h678q7 0 13-5t5-13z" horiz-adv-x="1000" />
<glyph glyph-name="wrench" unicode="&#xe814;" d="m214 29q0 14-10 25t-25 10-26-10-10-25 10-26 26-10 25 10 10 26z m360 234l-381-381q-21-20-50-20-29 0-51 20l-59 61q-21 20-21 50 0 29 21 51l380 380q22-55 64-97t97-64z m353 243q0-22-12-59-27-75-92-122t-144-46q-104 0-177 73t-73 177 73 176 177 74q32 0 67-10t60-26q9-6 9-15t-9-16l-163-94v-125l108-60q2 2 44 27t75 45 40 20q8 0 13-5t4-14z" horiz-adv-x="928.6" />
<glyph glyph-name="calendar" unicode="&#xe815;" d="m0-150l0 649 893 0 0-649-893 0z m0 705l0 221 109 0 0-141 200 0 0 141 275 0 0-141 199 0 0 141 110 0 0-221-893 0z m168 139l0 156 82 0 0-156-82 0z m59-619q0-112 123-112 47 0 84 32 39 31 39 80 0 68-78 90 48 15 64 48 12 28-2 73-27 62-107 62-51 0-86-26t-37-77l72 0q0 45 49 46 43 0 45-52 0-49-84-47l0-57q48 0 68-8 23-11 23-46 0-57-54-61-43 0-47 55l-72 0z m281 146q49 14 88 47l0-297 70 0 0 371-64 0q-38-37-94-58l0-63z m135 473l0 156 82 0 0-156-82 0z" horiz-adv-x="893" />
<glyph glyph-name="cog" unicode="&#xe816;" d="m571 350q0 59-41 101t-101 42-101-42-42-101 42-101 101-42 101 42 41 101z m286 61v-124q0-7-4-13t-11-7l-104-16q-10-30-21-51 19-27 59-77 6-6 6-13t-5-13q-15-21-55-61t-53-39q-7 0-14 5l-77 60q-25-13-51-21-9-76-16-104-4-16-20-16h-124q-8 0-14 5t-6 12l-16 103q-27 9-50 21l-79-60q-6-5-14-5-8 0-14 6-70 64-92 94-4 5-4 13 0 6 5 12 8 12 28 37t30 40q-15 28-23 55l-102 15q-7 1-11 7t-5 13v124q0 7 5 13t10 7l104 16q8 25 22 51-23 32-60 77-6 7-6 14 0 5 5 12 15 20 55 60t53 40q7 0 15-5l77-60q24 13 50 21 9 76 17 104 3 15 20 15h124q7 0 13-4t7-12l15-103q28-9 50-21l80 60q5 5 13 5 7 0 14-5 72-67 92-95 4-5 4-13 0-6-4-12-9-12-29-38t-30-39q14-28 23-55l102-15q7-1 12-7t4-13z" horiz-adv-x="857.1" />
<glyph glyph-name="list-numbered" unicode="&#xe817;" d="m1000 732v-213h-669v213h669z m0-334v-213h-669v213h669z m-804 313v-192h-42v125h-46v29q49 0 56 38h32z m804-648v-213h-669v213h669z m-768 161v-33h-141q1 28 17 49t35 30 34 23 15 30q0 12-7 20t-21 7q-29 0-31-41h-37q0 34 18 55t52 20q28 0 47-16t18-43q0-25-16-41t-40-30-34-30h91z m1-303q0-29-21-46t-50-16q-32 0-51 17t-20 49v3h38q0-37 32-37 14 0 23 8t9 22-10 21-25 7h-9v27h6q34 0 34 24 0 11-7 18t-20 6q-29 0-29-33h-37q1 30 19 47t47 17q26 0 45-13t19-39q0-13-7-24t-20-14q34-8 34-44z" horiz-adv-x="1000" />
<glyph glyph-name="list" unicode="&#xe818;" d="m1000 732v-213h-669v213h669z m0-334v-213h-669v213h669z m-761 228q0-31-22-53t-54-23-53 23-23 53 23 54 53 22 54-22 22-54z m761-563v-213h-669v213h669z m-761 228q0-32-22-54t-54-22-53 22-23 54 23 54 53 22 54-22 22-54z m0-335q0-31-22-54t-54-22-53 22-23 54q0 32 23 55t53 22 54-22 22-55z" horiz-adv-x="1000" />
<glyph glyph-name="wrench-1" unicode="&#xe819;" d="m951 461c14-13 14-35 0-50l-67-68c-14-14-35-14-50 0l-15 16c-11 10-16 29-10 37 11 8 7 30-14 50-30 32-69 33-84 17-6-5-26-27-26-27l-92 92 15 15s3 3 11 12c29 29-1 61-1 61-82 80-195 79-195 79l-2 29c229 59 315-41 347-73l66-66c16-16 0-62 24-89 11-11 26-16 37-16 13 11 33 8 43-4z m-406-168l220-198c31-31 30-81-1-114-33-31-83-31-114 2l-201 212-188-226c-17-19-48-19-67 0l-49 50c-19 17-19 49 0 67l215 200-104 100c-33 33-53 43-81 34-27-10-66-10-102 14-78 50-73 144-73 144l6 10s70-45 79-50c11-9 50-27 85 27 36 54 6 88-4 94-8 5-78 51-78 51l6 10s81 41 157-4c0-2 19-13 27-20 48-43 48-92 40-132-8-36 0-49 28-80l104-104 124 126 90-92z m191-284c17 15 17 44 0 60s-42 16-60 0c-15-16-15-44 0-59 18-16 44-19 60-1z" horiz-adv-x="951" />
<glyph glyph-name="doc-text-inv" unicode="&#xe81a;" d="m819 584q8-7 16-20h-264v264q13-8 21-16z m-265-91h303v-589q0-23-15-38t-38-16h-750q-23 0-38 16t-16 38v892q0 23 16 38t38 16h446v-304q0-22 16-38t38-15z m89-411v36q0 8-5 13t-13 5h-393q-8 0-13-5t-5-13v-36q0-8 5-13t13-5h393q8 0 13 5t5 13z m0 143v36q0 7-5 12t-13 5h-393q-8 0-13-5t-5-12v-36q0-8 5-13t13-5h393q8 0 13 5t5 13z m0 143v35q0 8-5 13t-13 5h-393q-8 0-13-5t-5-13v-35q0-8 5-13t13-5h393q8 0 13 5t5 13z" horiz-adv-x="857.1" />
<glyph glyph-name="invoice" unicode="&#xe81b;" d="m500 844c-273 0-494-221-494-494 0-273 221-494 494-494s494 221 494 494c0 273-221 494-494 494z m35-731v-80h-76v74c-52 2-103 16-132 33l23 91c33-18 79-34 129-34 44 0 75 17 75 48 0 30-25 48-83 68-83 28-139 67-139 142 0 68 48 122 131 138v74h76v-69c52-2 87-13 112-25l-22-88c-20 9-56 26-112 26-50 0-67-21-67-43 0-26 28-42 94-67 92-32 129-75 129-145 0-69-49-128-138-143z" horiz-adv-x="1000" />
<glyph glyph-name="badge-guarantee" unicode="&#xe81c;" d="m921 237c11 38 71 71 71 113s-60 75-70 113c-11 40 24 98 4 133-20 35-89 34-117 62-29 29-28 98-63 118-35 20-93-15-133-5-38 11-71 71-113 71s-75-60-113-71c-40-10-98 25-133 5-35-20-34-89-62-118-29-28-98-27-118-62-20-35 15-93 5-133-11-38-71-71-71-113s60-75 71-113c10-40-25-98-5-133 20-35 89-34 118-62 28-29 27-98 62-118 35-20 93 15 133 4 38-10 72-70 113-70s75 60 113 70c40 11 98-24 133-4 35 20 34 89 63 118 28 28 97 27 117 62 20 35-15 93-5 133z m-485-54l-139 140 68 68 73-74 199 200 66-66-267-268z" horiz-adv-x="1000" />
<glyph glyph-name="notifications" unicode="&#xe81d;" d="m92 447c0 128 91 238 211 262v6 84c0 28 23 51 51 51s50-23 50-51v-85-5c121-24 210-134 210-260v-39c0-162 17-257 92-349h-706c75 92 92 187 92 349v37l0 0z m387-484c-8-64-62-113-127-113s-118 49-127 113c-2 8 5 17 16 17h223c10 0 17-9 15-17l0 0z" horiz-adv-x="706" />
<glyph glyph-name="upcounsel" unicode="&#xe81e;" d="m213 842h284l0-286 309 1v-511c0-4-3-7-7-7h-282l-228-184 27 184h-103c-4 0-7 3-7 7v789c0 4 3 7 7 7m308-8l274-255-274 0" horiz-adv-x="1000" />
<glyph glyph-name="knowledge" unicode="&#xe81f;" d="m972 285c0 1 0 1 0 1 0 0 0 1 0 1 0 0 0 0 0 1-1 0-1 1-1 1 0 1 0 1 0 1 0 1 0 1 0 2 0 0 0 0 0 0 0 0 0 0 0 0 0 1-1 1-1 1 0 1 0 1 0 2 0 1-1 1-1 2 0 0 0 0 0 1 0 0-1 0-1 0 0 0 0 0 0 0 0 1 0 2-1 2 0 1 0 2-1 2 0 1 0 1 0 1-1 1-1 1-1 1 0 1 0 1-1 1 0 1-1 2-2 3 0 0 0 1-1 1 0 1 0 1 0 1-1 1-1 1-2 2 0 1-1 1-1 2-1 0-1 0-1 0 0 0 0 0 0 0 0 0 0 1-1 1 0 0 0 1-1 1 0 0-1 1-1 1 0 0-1 1-1 1 0 0-1 0-1 1l0 0c0 0 0 0 0 0-1 0-1 0-1 1-1 0-1 0-2 1 0 0 0 0-1 0 0 1-1 1-1 1 0 0 0 0-1 0 0 0 0 0 0 0 0 0 0 1 0 1-1 0-1 0-1 0-1 1-1 1-2 1 0 0 0 0-1 0 0 1-1 1-1 1 0 0 0 0 0 0l-1 0c0 0-1 1-1 1-11 11-18 25-18 41 0 9 2 18 5 26 10 9 19 17 28 25 0 0 1 1 1 1 1 1 1 1 1 1 0 1 0 1 0 1 0 0 0 0 0 0 1 0 1 0 1 1 0 0 0 0 0 1 1 0 1 0 1 1 0 0 0 0 0 0 0 0 0 0 0 0 0 0 0 1 0 1 0 0 0 0 0 1 1 0 1 1 1 1 0 0 0 1 0 1 0 0 0 0 0 0 0 0 0 0 0 0 0 1 0 1 0 1 0 0 0 1 0 1 0 0 0 1 0 1 0 1 0 1 0 1 0 1 0 1 0 1 0 0 0 0 0 1 0 0 0 0 0 1 0 0 0 1-1 1 0 0 0 1 0 1 0 1 0 1 0 2 0 0 0 0 0 0 0 0 0 0 0 0 0 1 0 1-1 1 0 1 0 1 0 2 0 0-1 1-1 1 0 1 0 1 0 2 0 0 0 0 0 0 0 0-1 0-1 0 0 1 0 2-1 2 0 1 0 2-1 2 0 1 0 1 0 1-74-67-175-159-261-236l-119-108-36-33c-7-6-10-9-13-11l0 0c-4-5-11-8-19-8-5 0-9 0-14 2l-60 23-1 0 0 0-340 129c-11 5-23 13-33 22l-20-18c0 0 0 0 0 0l0 0c0 0 0 0 0 0-6-6-10-15-9-27l9-102c2-14 9-29 19-41 10-13 23-23 38-29l401-152c9-4 18-3 22 3 0-1 299 271 450 407 0 0 1 1 1 1 0 1 1 1 1 2 0 0 0 0 0 0 0 0 0 0 0 0 0 0 1 0 1 1 0 0 0 0 0 1 0 0 1 1 1 1 0 0 0 0 0 0 0 0 0 0 0 0 0 1 0 1 0 1 0 0 0 1 0 1 0 0 0 1 1 1 0 0 0 1 0 1 0 0 0 0 0 0 0 1 0 1 0 1 0 0 0 0 0 0 0 0 0 1 0 1 0 1 0 1 0 1 0 1 0 1 0 1z m-470-357l0 0c-10-8-19-9-27-6l-356 136c-8 3-24 7-26 20l-4 54c-1 11 7 22 18 18l375-143c9-3 17-2 22 3-1 0 229 208 387 351 2-22 11-41 27-57l-416-376z m470 571c0 0 0 0 0 1 0 0 0 0 0 0 0 0 0 1 0 1-1 1-1 1-1 2 0 0 0 0 0 1 0 0 0 1 0 1 0 0 0 0 0 0 0 1 0 1 0 1 0 0-1 0-1 1 0 0 0 1 0 1 0 1-1 1-1 2 0 0 0 1 0 1 0 0-1 0-1 1 0 0 0 0 0 0 0 0 0 1-1 2 0 0 0 1-1 2 0 0 0 0 0 1-1 0-1 0-1 1 0 0 0 0-1 1 0 1-1 1-2 2 0 1 0 1-1 2 0 0 0 0 0 0-1 1-1 2-2 2 0 1-1 1-1 2-1 0-1 0-1 1 0 0 0 0 0 0 0 0 0 0-1 0 0 1 0 1-1 1 0 1-1 1-1 1 0 1-1 1-1 1 0 1-1 1-1 1l0 0c0 0 0 0 0 0-1 1-1 1-1 1-1 0-1 1-2 1 0 0 0 0-1 1 0 0-1 0-1 0 0 1 0 1-1 1 0 0 0 0 0 0 0 0 0 0 0 0-1 0-1 1-1 1-1 0-1 0-2 0 0 0 0 1-1 1 0 0-1 0-1 0 0 0 0 0 0 1l-1-1c0 1-1 1-1 1-11 11-18 26-18 41 0 10 2 18 5 26 10 9 19 17 28 25 0 1 1 1 1 2 1 0 1 0 1 1 0 0 0 0 0 0 0 0 0 0 0 0 1 0 1 1 1 1 0 0 0 1 0 1 1 0 1 1 1 1 0 0 0 0 0 1 0 0 0 0 0 0 0 0 0 0 0 0 0 1 0 1 0 1 1 1 1 1 1 1 0 1 0 1 0 1 0 0 0 1 0 1 0 0 0 0 0 0 0 0 0 0 0 0 0 1 0 1 0 1 0 1 0 1 0 2 0 0 0 0 0 1 0 0 0 0 0 1 0 0 0 0 0 0 0 0 0 1 0 1 0 1 0 1-1 1 0 1 0 1 0 2 0 0 0 1 0 1 0 0 0 0 0 0 0 0 0 0 0 1 0 0 0 0-1 1 0 0 0 1 0 1 0 1-1 1-1 2 0 0 0 1 0 1 0 0 0 0 0 0 0 0-1 1-1 1 0 0 0 1-1 2 0 0 0 1-1 2 0 0 0 0 0 1 0 0-1 0-1 0 0 1 0 1 0 2-1 0-2 1-2 2-1 1-1 1-2 2 0 0 0 0 0 0 0 1-1 2-2 2 0 1-1 1-1 2 0 0-1 0-1 0 0 0 0 1 0 1 0 0 0 0 0 0-1 1-1 1-2 1 0 1 0 1-1 1 0 1-1 1-1 1 0 0-1 1-1 1 0 0 0 0 0 0 0 0 0 0 0 0-1 0-1 1-1 1-1 0-1 1-2 1 0 0 0 0-1 1 0 0-1 0-1 0 0 0 0 1 0 1 0 0-1 0-1 0 0 0 0 0 0 0-1 0-1 0-1 1-1 0-1 0-2 0 0 0 0 1-1 1 0 0 0 0-1 0 0 0 0 0 0 0l-401 153c-1 0-1 0-1 0-1 1-2 1-3 1 0 0-1 0-2 1-1 0-2 0-2 0-1 0-2 1-2 1 0 0 0 0 0 0-1 0-1 0-1 0-1 0-2 0-2 0-1 0-2 0-3 0-1 0-2 0-3 0-1 0-1 0-1 0 0 0 0 0 0 0-1 0-2 0-3 0-2 0-3 0-4-1 0 0-1 0-2 0-2-1-5-2-6-3-2-1-3-2-4-3l-451-408c0 0 0 0 0 0l0 0c0 0 0 0 0 0-6-6-10-16-9-28l9-101c2-14 9-29 19-42 10-12 23-23 38-29l401-152c9-4 18-2 22 3 0 0 299 271 450 407 0 1 1 1 1 2 0 0 1 1 1 1 0 0 0 0 0 0 0 0 0 0 0 0 0 1 1 1 1 1 0 0 0 1 0 1 0 1 1 1 1 1 0 0 0 1 0 1 0 0 0 0 0 0 0 0 0 0 0 0 0 1 0 1 0 1 0 1 0 1 1 1 0 1 0 1 0 1 0 1 0 1 0 1 0 0 0 0 0 0 0 0 0 0 0 1 0 0 0 0 0 1 0 0 0 0 0 1 0 0 0 0 0 1z m-470-358l0 0c-10-8-19-9-27-5l-356 135c-8 3-24 8-26 21l-4 53c-1 11 7 22 18 18l375-142c9-4 17-3 22 2-1 0 229 208 387 351 2-21 11-41 27-56l-416-377z" horiz-adv-x="1000" />
<glyph glyph-name="shield" unicode="&#xe820;" d="m910 713c-1 18-15 31-32 31-239 0-353 93-354 94-12 10-30 10-41 0-2-1-116-94-355-94-17 0-31-13-32-31-1-29-17-711 396-857 4-1 7-1 11-1s7 0 11 1c413 146 397 828 396 857z m-222-520c0-27-22-48-49-48h-272c-27 0-49 21-49 48v191c0 26 20 47 46 49v77c0 76 62 139 139 139s139-63 139-139v-77c26-2 46-23 46-49v-191z m-158 94c9 8 15 20 15 32 0 23-19 42-42 42s-42-18-42-42c0-12 6-24 15-32l-18-44c-1-2-1-5 1-7 1-2 3-4 6-4h76c3 0 5 2 6 4 2 2 2 5 1 7l-18 44z m-27 293c-39 0-70-32-70-70v-77h140v77c0 38-31 70-70 70z" horiz-adv-x="1000" />
<glyph glyph-name="plus-circle" unicode="&#xe821;" d="m465 797q184 0 315-131t131-316-131-315-315-132-316 132-131 315 131 316 316 131z m223-502l0 112-167 0 0 167-112 0 0-167-168 0 0-112 168 0 0-168 112 0 0 168 167 0z" horiz-adv-x="928" />
<glyph glyph-name="heart" unicode="&#xe822;" d="m1 532q7 111 75 183 94 80 212 70t190-98q38 49 92 79 113 43 217 3t150-140q30-106 10-199t-78-174q-68-94-174-184-53-49-124-103t-93-57q-13 2-28 12t-35 25-24 20q-264 199-348 357-49 96-42 206z" horiz-adv-x="955" />
<glyph glyph-name="cancel" unicode="&#xe823;" d="m0 90q0 36 26 62l195 195-195 196q-26 25-26 61t26 61 61 25 61-25l196-196 195 196q25 25 61 25t61-25 25-61-25-61l-195-196 195-195q25-26 25-62t-25-61q-25-25-61-25t-61 25l-195 195-196-195q-25-25-61-25t-61 25q-26 26-26 61z" horiz-adv-x="686.5" />
<glyph glyph-name="cancel-circled" unicode="&#xe824;" d="m0 350q0 95 37 182t100 149 150 100 182 37 182-37 149-100 100-149 37-182-37-182-100-150-149-100-182-37-182 37-150 100-100 150-37 182z m261-155q0-22 15-38 15-15 37-15 22 0 37 15l119 119 118-119q15-15 37-15 22 0 37 15 15 16 15 38t-15 37l-118 118 118 119q15 15 15 37t-15 37-37 15-37-15l-118-119-119 119q-15 15-37 15t-37-15q-15-15-15-37t15-37l118-119-118-118q-15-15-15-37z" horiz-adv-x="937.5" />
<glyph glyph-name="inbox" unicode="&#xe825;" d="m500 225l-250 250h125v375h250v-375h125l-250-250z m344 313h-70l156-313h-180c0-138-112-250-250-250s-250 112-250 250h-180l156 312h-70l-156-312v-375h1000v375l-156 313z" horiz-adv-x="1000" />
<glyph glyph-name="attach" unicode="&#xe826;" d="m1113 556q0-67-26-129t-74-110l-448-444-62 61 448 444q74 72 74 178 0 89-58 148t-148 58q-102 0-180-75l-493-489q-59-59-59-133 0-57 37-94t94-36q75 0 134 59l377 372q53 55 53 97 0 21-16 33t-38 12q-48 0-86-40l-340-336-61 61 339 336q66 66 148 66 58 0 100-37t42-94q0-78-79-159l-377-372q-84-84-196-84-93 0-155 61t-63 155q0 110 84 194l493 489q104 101 242 101 125 0 210-84t84-209z" horiz-adv-x="1113" />
<glyph glyph-name="clock" unicode="&#xe827;" d="m460 810q190 0 325-135t135-325-135-325-325-135-325 135-135 325 135 325 325 135z m0-820q150 0 255 106t105 254q0 150-105 255t-255 105q-148 0-254-105t-106-255q0-148 106-254t254-106z m36 620l0-244 150-150-50-50-170 170 0 274 70 0z" horiz-adv-x="920" />
<glyph glyph-name="spin6" unicode="&#xe828;" d="m855 9c-189-190-520-172-705 13-190 190-200 494-28 695 11 13 21 26 35 34 36 23 85 18 117-13 30-31 35-76 16-112-5-9-9-15-16-22-140-151-145-379-8-516 153-153 407-121 542 34 106 122 142 297 77 451-83 198-305 291-510 222l0 1c236 82 492-24 588-252 71-167 37-355-72-493-11-15-23-29-36-42z" horiz-adv-x="1000" />
<glyph glyph-name="down-open" unicode="&#xe829;" d="m939 399l-414-413q-10-11-25-11t-25 11l-414 413q-11 11-11 26t11 25l92 92q11 11 26 11t25-11l296-296 296 296q11 11 25 11t26-11l92-92q11-11 11-25t-11-26z" horiz-adv-x="1000" />
<glyph glyph-name="left-open" unicode="&#xe82a;" d="m653 682l-296-296 296-297q11-10 11-25t-11-25l-92-93q-11-10-25-10t-25 10l-414 415q-11 10-11 25t11 25l414 414q10 10 25 10t25-10l92-93q11-10 11-25t-11-25z" horiz-adv-x="714.3" />
<glyph glyph-name="right-open" unicode="&#xe82b;" d="m618 361l-414-415q-11-10-25-10t-26 10l-92 93q-11 11-11 25t11 25l296 297-296 296q-11 11-11 25t11 25l92 93q11 10 26 10t25-10l414-414q10-11 10-25t-10-25z" horiz-adv-x="714.3" />
<glyph glyph-name="up-open" unicode="&#xe82c;" d="m939 107l-92-92q-11-10-26-10t-25 10l-296 297-296-297q-11-10-25-10t-26 10l-92 92q-11 11-11 26t11 25l414 414q11 10 25 10t25-10l414-414q11-11 11-25t-11-26z" horiz-adv-x="1000" />
<glyph glyph-name="angle-left" unicode="&#xe82d;" d="m350 546q0-7-6-12l-219-220 219-219q6-6 6-13t-6-13l-28-28q-5-5-12-5t-13 5l-260 260q-6 6-6 13t6 13l260 260q5 6 13 6t12-6l28-28q6-5 6-13z" horiz-adv-x="357.1" />
<glyph glyph-name="angle-right" unicode="&#xe82e;" d="m332 314q0-7-6-13l-260-260q-5-5-12-5t-13 5l-28 28q-6 6-6 13t6 13l219 219-219 220q-6 5-6 12t6 13l28 28q5 6 13 6t12-6l260-260q6-5 6-13z" horiz-adv-x="357.1" />
<glyph glyph-name="angle-up" unicode="&#xe82f;" d="m600 189q0-7-6-13l-28-27q-5-6-12-6t-13 6l-220 219-219-219q-5-6-13-6t-13 6l-27 27q-6 6-6 13t6 13l260 260q5 6 12 6t13-6l260-260q6-5 6-13z" horiz-adv-x="642.9" />
<glyph glyph-name="angle-down" unicode="&#xe830;" d="m600 439q0-7-6-13l-260-260q-5-5-13-5t-12 5l-260 260q-6 6-6 13t6 13l27 28q6 6 13 6t13-6l219-219 220 219q5 6 13 6t12-6l28-28q6-5 6-13z" horiz-adv-x="642.9" />
<glyph glyph-name="lock" unicode="&#xe831;" d="m179 421h285v108q0 59-42 101t-101 41-101-41-41-101v-108z m464-53v-322q0-22-16-37t-38-16h-535q-23 0-38 16t-16 37v322q0 22 16 38t38 15h17v108q0 102 74 176t176 74 177-74 73-176v-108h18q23 0 38-15t16-38z" horiz-adv-x="642.9" />
<glyph glyph-name="lock-open" unicode="&#xe832;" d="m929 529v-143q0-15-11-25t-25-11h-36q-14 0-25 11t-11 25v143q0 59-41 101t-101 41-101-41-42-101v-108h53q23 0 38-15t16-38v-322q0-22-16-37t-38-16h-535q-23 0-38 16t-16 37v322q0 22 16 38t38 15h375v108q0 103 73 176t177 74 176-74 74-176z" horiz-adv-x="928.6" />
<glyph glyph-name="lock-open-alt" unicode="&#xe833;" d="m589 421q23 0 38-15t16-38v-322q0-22-16-37t-38-16h-535q-23 0-38 16t-16 37v322q0 22 16 38t38 15h17v179q0 103 74 177t176 73 177-73 73-177q0-15-10-25t-25-11h-36q-14 0-25 11t-11 25q0 59-42 101t-101 42-101-42-41-101v-179h410z" horiz-adv-x="642.9" />
<glyph glyph-name="credit-card" unicode="&#xe834;" d="m982 779q37 0 63-27t26-63v-678q0-37-26-63t-63-27h-893q-36 0-63 27t-26 63v678q0 37 26 63t63 26h893z m-893-72q-7 0-12-5t-6-13v-125h929v125q0 8-5 13t-13 5h-893z m893-714q7 0 13 5t5 13v339h-929v-339q0-8 6-13t12-5h893z m-839 71v72h143v-72h-143z m214 0v72h214v-72h-214z" horiz-adv-x="1071.4" />
<glyph glyph-name="graduation-cap" unicode="&#xe835;" d="m990 383l10-176q2-38-46-71t-131-52-180-20-180 20-131 52-46 71l10 176 320-101q12-3 27-3t27 3z m296 181q0-13-13-17l-625-196q-2-1-5-1t-6 1l-364 115q-24-19-39-63t-19-99q35-20 35-61 0-39-32-60l32-241q1-8-4-14-5-7-14-7h-107q-8 0-13 7-6 6-5 14l33 241q-33 21-33 60 0 41 36 62 7 115 55 184l-186 58q-12 4-12 17t12 18l625 196q3 1 6 1t5-1l625-196q13-5 13-18z" horiz-adv-x="1285.7" />
<glyph glyph-name="cc-visa" unicode="&#xe836;" d="m1102 298h-77q8 20 37 99l2 5q2 6 5 15t5 14l7-30z m-806 36l-32 164q-6 31-42 31h-149l-2-8q174-44 225-187z m100 195l-90-245-10 50q-14 39-47 72t-73 49l75-284h98l145 358h-98z m78-359h92l58 359h-92z m428 350q-38 15-83 15-68 0-112-33t-44-86q-1-56 81-97 27-13 37-23t11-21q0-17-17-26t-38-9q-48 0-87 19l-13 6-13-81q42-19 104-19 72 0 116 33t45 90q0 59-78 97-28 14-40 23t-12 21q0 13 14 22t39 9q39 1 69-13l9-5z m237 9h-71q-36 0-48-31l-138-328h97l20 54h118q3-12 11-54h86z m147 178v-714q0-29-22-50t-50-22h-1143q-29 0-50 22t-21 50v714q0 29 21 50t50 22h1143q29 0 50-22t22-50z" horiz-adv-x="1285.7" />
<glyph glyph-name="cc-mastercard" unicode="&#xe837;" d="m374 329h-7q-26 0-26-17 0-13 11-13 10 0 16 9t6 21z m221 20h34v2q1 2 1 4t-1 4-1 4-2 4-5 3-6 1q-16 0-20-22z m301-20h-6q-27 0-27-17 0-13 11-13 9 0 16 9t6 21z m178 15q0 23-17 23-10 0-17-11t-7-29q0-23 16-23 11 0 18 11t7 29z m-806 79h48l-24-147h-31l17 113-39-113h-22l-2 112-19-112h-30l25 147h45l1-91z m141-60q0-3-2-24-9-56-10-63h-26l1 13q-11-15-33-15-13 0-21 9t-8 23q0 22 15 34t41 12q7 0 12 0 0 1 1 3t0 2 0 2q0 11-20 11-16 0-33-5 0 2 4 26 22 6 38 6 41 0 41-34z m87 32l-4-27q-13 2-23 2-15 0-15-10 0-4 2-7t12-6q23-10 23-33 0-40-49-40-19 0-32 3 0 2 4 28 16-5 28-5 18 0 18 11 0 4-3 6t-12 7q-24 12-24 33 0 40 47 40 17 0 28-2z m49 0h16l-4-29h-16q-1-9-4-22t-4-22-1-10q0-9 10-9 5 0 9 1l-4-26q-12-4-22-4-24 0-26 26 0 7 5 32 2 11 14 81h31z m113-41q0-12-3-29h-62q-2-12 5-18t21-6q17 0 33 8l-5-30q-17-5-32-5-53 0-53 53 0 31 15 51t39 19q20 0 31-11t11-32z m78 42q-7-13-12-35-12 1-18-13t-13-72h-32l2 8q12 73 16 111h29l-2-18q8 12 14 16t16 3z m104 23l-5-32q-15 8-28 8-17 0-28-16t-11-39q0-17 7-26t22-10q12 0 27 8l-6-33q-16-5-28-5-25 0-40 17t-15 46q0 39 20 64t51 25q15 0 34-7z m91-56q0-10-2-24-8-44-10-63h-26l1 13q-11-15-33-15-13 0-21 9t-7 23q0 22 14 34t40 12q9 0 13 0 1 4 1 7 0 11-20 11-16 0-33-5 0 2 5 26 21 6 37 6 41 0 41-34z m78 33q-7-14-11-35-13 1-18-13t-14-72h-31l1 8q11 58 17 111h29q0-6-3-18 9 12 15 16t15 3z m79 27h31l-24-147h-29l2 11q-13-13-30-13-17 0-27 14t-10 35q0 30 15 52t36 21q17 0 29-16z m62-73q0 83-40 152t-111 111-152 41q-101 0-183-62 70-65 95-158h-28q-25 83-88 141-64-58-88-141h-28q24 93 95 158-82 61-183 61-82 0-152-40t-111-111-40-152 40-152 111-111 152-41q101 0 183 62-67 62-92 147h28q26-77 85-130 59 53 85 130h28q-26-85-92-147 82-62 183-62 82 0 152 41t111 111 40 152z m136 357v-714q0-29-22-50t-50-22h-1143q-29 0-50 22t-21 50v714q0 29 21 50t50 22h1143q29 0 50-22t22-50z" horiz-adv-x="1285.7" />
<glyph glyph-name="cc-discover" unicode="&#xe838;" d="m175 416q0-28-20-46-17-15-50-15h-10v123h10q34 0 50-15 20-18 20-47z m991 37q0-29-36-29h-11v56h12q35 0 35-27z m-954-37q0 42-28 68t-72 26h-53v-186h53q42 0 67 21 33 28 33 71z m17-92h36v186h-36v-186z m178 56q0 22-11 35t-42 23q-16 6-22 11t-6 13q0 9 7 14t20 6q16 0 29-15l19 25q-23 20-54 20-25 0-42-15t-16-38q0-19 10-31t35-20q21-7 25-11 11-6 11-19 0-11-8-18t-20-8q-27 0-40 25l-23-23q25-35 64-35 29 0 47 17t17 44z m156-50v43q-21-21-44-21-27 0-45 18t-18 46q0 27 18 46t43 19q24 0 46-22v43q-23 12-45 12-41 0-70-29t-29-69 29-68 69-29q24 0 46 11z m687-337v294q-36-22-81-47t-132-65-184-77-233-75-281-66h875q15 0 25 11t11 25z m-475 422q0 42-29 72t-72 29-71-29-30-72 30-71 71-30 72 30 29 71z m85-96l80 191h-39l-51-125-49 125h-40l79-191h20z m96 5h103v31h-66v50h64v32h-64v41h66v32h-103v-186z m219 0h44l-58 78q42 9 42 52 0 27-17 41t-49 15h-54v-186h36v74h5z m111 380v-708q0-31-22-53t-52-22h-1138q-31 0-52 22t-22 53v708q0 31 22 53t52 22h1138q31 0 52-22t22-53z" horiz-adv-x="1285.7" />
<glyph glyph-name="cc-amex" unicode="&#xe839;" d="m66 469h50l-25 61z m347-293l41 44-39 44h-91v-27h79v-31h-79v-30h89z m88 43l55-61v121z m161 27q0 18-22 18h-47v-38h46q23 0 23 20z m161 2q0 16-23 16h-46v-34h45q24 0 24 18z m-155 260q0 16-23 16h-46v-33h45q24 0 24 17z m256-39h50l-25 61z m-534 87v-151h-37v118l-52-118h-32l-52 118v-118h-74l-14 33h-75l-14-33h-39l64 151h54l61-143v143h59l48-103 43 103h60z m310-310q0-11-3-20t-8-14-12-9-15-6-17-2-18-1-18 1-16 0v-51h-71l-44 50-47-50h-142v151h145l44-49 46 49h116q60 0 60-49z m-162 190v-31h-121v151h121v-32h-85v-27h83v-31h-83v-30h85z m748-312v-128q0-31-22-53t-52-22h-1138q-31 0-52 22t-22 53v379h62l14 34h31l14-34h121v25l11-25h63l11 26v-26h302v55l5 0q6 0 6-7v-48h156v12q13-6 30-10t30-3 35 0 29 1l14 34h31l14-34h126v32l19-32h102v210h-100v-24l-14 24h-104v-24l-12 24h-139q-39 0-61-12v12h-96v-12q-14 12-41 12h-350l-24-54-24 54h-111v-24l-12 24h-94l-44-99v218q0 30 22 53t52 22h1138q31 0 52-22t22-53v-379h-67q-29 0-45-12v12h-99q-31 0-44-12v12h-176v-12q-17 12-49 12h-116v-12q-13 12-51 12h-131l-30-32-28 32h-194v-210h191l31 32 29-32h117v49h12q33 0 50 7v-56h97v55h5q4 0 6-1t1-6v-48h295q32 0 49 13v-13h94q33 0 53 9z m-423 131q0-13-7-24t-19-17q14-5 19-14t5-26v-30h-36v25q0 19-7 24t-26 6h-38v-55h-36v151h86q26 0 43-8t16-32z m-155 260q0-13-7-24t-19-17q15-5 20-14t4-26v-29h-36q0 5 0 14t0 14-1 11-5 9-10 4-16 2h-39v-54h-36v151l85-1q28 0 44-8t16-32z m295-340v-31h-120v151h120v-31h-84v-27h83v-31h-83v-30z m-237 381v-151h-37v151h37z m386-364q0-48-57-48h-70v32h70q19 0 19 14 0 9-9 12t-23 3-28 2-23 12-10 31q0 22 15 34t37 11h72v-31h-66q-20 0-20-14 0-9 9-12t24-2 27-1 24-12 9-31z m134 28v-56q-14-20-49-20h-70v32h70q18 0 18 14 0 8-7 11t-17 3-23 1-22 5-17 13-7 27q0 22 15 34t37 11h72v-31h-66q-20 0-20-14 0-12 16-13t38-2 32-15z m-92 335v-150h-52l-68 113v-113h-73l-15 33h-75l-14-33h-42q-72 0-72 74 0 77 75 77h35v-33q-4 0-16 0t-16 1-13-1-12-4-8-7-6-13-2-19q0-21 8-32t27-11h17l51 118h54l61-143v143h55l64-105v105h37z" horiz-adv-x="1285.7" />
<glyph glyph-name="cc-paypal" unicode="&#xe83a;" d="m180 377h-9q-10 0-10 10 0 16 10 48 3 8 9 11t15 2q43 0 43-27 0-23-17-33t-41-11z m191-89q-27 0-27 16 0 34 69 34l2-1q-3-49-44-49z m431 88h-8q-11 0-11 11 0 15 11 47 3 9 8 11t16 2q43 0 43-27 0-23-17-33t-42-11z m191-89q-26 0-26 17 0 34 69 34l1-1q-2-50-44-50z m-785 205h-71q-5 0-8-2t-5-5-4-7q-2-4-25-106t-24-107q0-4 4-7t7-3h35q14 0 18 19l8 39t18 19q27 0 49 4t45 14 35 29 14 47q0 21-8 35t-23 20-30 9-35 2z m193-54q-21 0-41-3-1 0-5-1t-5-1l-4 0t-4-2-4-1-3-2-3-3-3-4-2-5q-5-16-5-22t5-5q3 0 12 2t11 4q17 4 32 4 42 0 42-20 0-6-6-8-4-1-10-1t-12-1-10-1q-21-2-36-6t-31-11-26-21-8-35q0-21 14-33t36-12q13 0 25 3t19 7 21 14q-2-4-2-9t4-7 7-3h31q0 0 4 2t4 2 3 1 2 4 2 4l25 108q2 7 2 17 0 45-81 45z m295-3h-41q-13 0-22-12-3-4-17-29t-26-45-14-22l-3 2q0 43-15 93-1 3-2 5t-3 3-4 3-5 2-4 1-6 0-5 1h-10q-21 0-21-12l0-3q3-30 14-84t14-80q1-9 1-13 0-11-17-35t-17-32q0-8 23-8 34 0 42 14l137 232q5 11 5 14 0 5-4 5z m135 56h-72q-10 0-16-13-4-7-26-107t-23-106q0-12 24-12h14t6 1 4 1 5 2 4 2 3 4 2 4l11 51q1 6 6 10t11 4q26 0 49 4t45 13 35 29 13 47q0 20-8 34t-23 21-29 8-35 3z m193-53q-15 0-41-3-22-4-27-9-4-5-6-11-5-13-5-21 0-6 5-6 0 0 23 7 16 4 32 4 41 0 41-20 0-7-5-8-3 0-32-4-21-2-36-5t-32-11-25-22-9-35 15-32 36-12q13 0 25 3t19 7 21 14q-2-9-2-9 0-3 1-5t4-3 4-2 6-1 6-1h9q24 0 27 14l25 109q2 8 2 17 0 45-81 45z m180 51h-31q-14 0-18-22-6-25-21-94t-24-106v-2q0-9 9-10h33q5 0 10 3t6 9l46 209h0l0 3q0 4-3 7t-7 3z m82 218v-714q0-29-22-50t-50-22h-1143q-29 0-50 22t-21 50v714q0 29 21 50t50 22h1143q29 0 50-22t22-50z" horiz-adv-x="1285.7" />
<glyph glyph-name="cc-stripe" unicode="&#xe83b;" d="m891 346q0-38-12-59-10-20-29-20-12 0-22 5v125q16 17 31 17 32 0 32-68z m245 20h-62q4 55 31 55 29 0 31-55z m-870-75q0 33-19 51t-56 32q-20 7-29 13t-9 14q0 15 21 15 33 0 69-19l10 63q-37 18-83 18-43 0-68-21-27-22-27-61 0-33 18-51t55-31q22-8 31-14t9-16q0-17-27-17-16 0-39 7t-40 17l-11-63q41-23 94-23 45 0 72 21 29 22 29 65z m164 120l11 62h-54v75l-72-12-10-63-25-5-10-57h35v-122q0-47 24-67 21-17 62-17 18 0 44 6v66q-18-4-24-4-24 0-24 28v110h43z m177-14v77q-9 2-16 2-18 0-31-9t-19-25l-5 31h-73v-263h83v171q15 17 46 17 9 0 15-1z m20-187h84v263h-84v-263z m347 139q0 68-25 100-22 29-62 29-35 0-65-31l-4 26h-74v-360l84 14v84q20-6 38-6 46 0 74 31 34 36 34 113z m-261 194q0 19-13 31t-31 13-31-13-13-31 13-31 31-14 31 14 13 31z m501-199q0 63-27 98-27 36-80 36-53 0-84-37t-31-100q0-72 35-105 30-31 90-31 56 0 89 22l-9 58q-32-18-71-18-24 0-36 11-12 11-15 37h138q1 8 1 29z m72 363v-714q0-29-22-50t-50-22h-1143q-29 0-50 22t-21 50v714q0 29 21 50t50 22h1143q29 0 50-22t22-50z" horiz-adv-x="1285.7" />
<glyph glyph-name="ok" unicode="&#xe83c;" d="m932 534q0-22-15-38l-404-404-76-76q-16-15-38-15t-38 15l-76 76-202 202q-15 16-15 38t15 38l76 76q16 16 38 16t38-16l164-165 366 367q16 16 38 16t38-16l76-76q15-16 15-38z" horiz-adv-x="1000" />
<glyph glyph-name="ok-squared" unicode="&#xe83d;" d="m382 125l343 343q10 10 10 25t-10 25l-57 57q-11 10-25 10t-25-10l-261-261-118 118q-10 11-25 11t-25-11l-57-57q-10-11-10-25t10-25l200-200q11-11 25-11t25 11z m475 493v-536q0-66-47-113t-114-48h-535q-67 0-114 48t-47 113v536q0 66 47 113t114 48h535q67 0 114-48t47-113z" horiz-adv-x="857.1" />
<glyph glyph-name="dot-circled" unicode="&#xe83e;" d="m571 350q0-59-41-101t-101-42-101 42-42 101 42 101 101 42 101-42 41-101z m-142 304q-83 0-153-41t-110-111-41-152 41-152 110-111 153-41 152 41 110 111 41 152-41 152-110 111-152 41z m428-304q0-117-57-215t-156-156-215-58-216 58-155 156-58 215 58 215 155 156 216 58 215-58 156-156 57-215z" horiz-adv-x="857.1" />
<glyph glyph-name="star-empty" unicode="&#xe83f;" d="m634 290l171 165-235 35-106 213-105-213-236-35 171-165-41-235 211 111 211-111z m295 199q0-12-15-27l-203-197 48-279q1-4 1-12 0-28-23-28-10 0-22 7l-251 132-250-132q-13-7-23-7-11 0-17 9t-6 19q0 4 1 12l48 279-203 197q-14 15-14 27 0 21 31 26l280 40 126 254q11 23 27 23t28-23l125-254 280-40q32-5 32-26z" horiz-adv-x="928.6" />
<glyph glyph-name="trademark" unicode="&#xe840;" d="m500-150c276 0 500 224 500 500 0 276-224 500-500 500-276 0-500-224-500-500 0-276 224-500 500-500z m183 238c-14-12-35-12-47 2l-176 193c-9 9-11 24-6 36 6 12 18 20 32 20l41 0c59 0 108 50 108 110 0 60-49 109-108 109l-147 0 0-450c0-19-15-34-33-34-19 0-34 15-34 34l0 484c0 19 15 34 34 34l180 0c96 0 175-80 175-177 0-87-62-159-143-174l126-139c12-14 12-35-2-48z" horiz-adv-x="1000" />
<glyph glyph-name="star-1" unicode="&#xe841;" d="m929 489q0-12-15-27l-203-197 48-279q1-4 1-12 0-11-6-19t-17-9q-10 0-22 7l-251 132-250-132q-13-7-23-7-11 0-17 9t-6 19q0 4 1 12l48 279-203 197q-14 15-14 27 0 21 31 26l280 40 126 254q11 23 27 23t28-23l125-254 280-40q32-5 32-26z" horiz-adv-x="928.6" />
<glyph glyph-name="star-half-alt" unicode="&#xe842;" d="m662 316l143 139-198 29-37 6-17 34-89 179v-537l33-17 178-94-34 198-7 37z m252 146l-202-197 47-279q3-19-3-29t-19-11q-9 0-22 7l-251 132-250-132q-13-7-23-7-12 0-19 11t-3 29l48 279-203 197q-18 18-13 33t30 20l280 40 126 254q11 23 27 23 16 0 28-23l125-254 280-40q25-4 30-20t-13-33z" horiz-adv-x="928.6" />
<glyph glyph-name="taxes" unicode="&#xe843;" d="m701-150l-640 0c-34 0-61 28-61 61l0 878c0 33 27 61 61 61l640 0c34 0 61-28 61-61l0-878c0-33-27-61-61-61l0 0z m-39 725l-566 0c-14 0-26 11-26 25l0 125c0 14 12 26 26 26l566 0c14 0 25-12 25-26l0-125c0-14-11-25-25-25l0 0z m-472-66l-94 0c-7 0-13-6-13-13l0-85c0-7 6-13 13-13l94 0c7 0 13 6 13 13l0 85c0 7-6 13-13 13l0 0z m157 0l-94 0c-7 0-13-6-13-13l0-85c0-7 6-13 13-13l94 0c7 0 13 6 13 13l0 85c0 7-6 13-13 13l0 0z m157 0l-94 0c-7 0-12-6-12-13l0-85c0-7 5-13 12-13l94 0c8 0 13 6 13 13l0 85c0 7-5 13-13 13l0 0z m158 0l-94 0c-7 0-13-6-13-13l0-85c0-7 6-13 13-13l94 0c7 0 13 6 13 13l0 85c0 7-6 13-13 13l0 0z m-472-157l-94 0c-7 0-13-6-13-13l0-85c0-7 6-13 13-13l94 0c7 0 13 6 13 13l0 85c0 7-6 13-13 13l0 0z m157 0l-94 0c-7 0-13-6-13-13l0-85c0-7 6-13 13-13l94 0c7 0 13 6 13 13l0 85c0 7-6 13-13 13l0 0z m157 0l-94 0c-7 0-12-6-12-13l0-85c0-7 5-13 12-13l94 0c8 0 13 6 13 13l0 85c0 7-5 13-13 13l0 0z m158 0l-94 0c-7 0-13-6-13-13l0-85c0-7 6-13 13-13l94 0c7 0 13 6 13 13l0 85c0 7-6 13-13 13l0 0z m-472-157l-94 0c-7 0-13-6-13-13l0-85c0-7 6-13 13-13l94 0c7 0 13 6 13 13l0 85c0 7-6 13-13 13l0 0z m157 0l-94 0c-7 0-13-6-13-13l0-85c0-7 6-13 13-13l94 0c7 0 13 6 13 13l0 85c0 7-6 13-13 13l0 0z m157 0l-94 0c-7 0-12-6-12-13l0-85c0-7 5-13 12-13l94 0c8 0 13 6 13 13l0 85c0 7-5 13-13 13z m-314-157l-94 0c-7 0-13-5-13-13l0-85c0-7 6-13 13-13l94 0c7 0 13 6 13 13l0 85c0 8-6 13-13 13z m157 0l-94 0c-7 0-13-5-13-13l0-85c0-7 6-13 13-13l94 0c7 0 13 6 13 13l0 85c0 8-6 13-13 13z m157 0l-94 0c-7 0-12-5-12-13l0-85c0-7 5-13 12-13l94 0c8 0 13 6 13 13l0 85c0 8-5 13-13 13z m158 157l-94 0c-7 0-13-6-13-13l0-242c0-7 6-13 13-13l94 0c7 0 13 6 13 13l0 242c0 7-6 13-13 13z" horiz-adv-x="762" />
<glyph glyph-name="real-estate" unicode="&#xe844;" d="m642 850l0-988-248 0 0 193 0 8-7 0-132 0-7 0 0-8 0-193-248 0 0 988 642 0z m-190-293l0 200 132 0 0-200-132 0 0 0z m-197 0l0 200 132 0 0-200-132 0 0 0z m-197 0l0 200 132 0 0-200-132 0 0 0z m394-335l0 201 132 0 0-201-132 0z m-197 0l0 201 132 0 0-201-132 0z m-197 0l0 201 132 0 0-201-132 0z" horiz-adv-x="667" />
<glyph glyph-name="patent" unicode="&#xe845;" d="m709 850l-673 0c-20 0-36-16-36-36l0-893c0-20 16-36 36-36l673 0c20 0 36 16 36 36l0 893c0 20-16 36-36 36l0 0z m-624-196c0 57 47 104 104 104 57 0 104-47 104-104 0-43-25-79-61-95l0-95-43 23-43-23 0 95c-36 16-61 52-61 95l0 0z m541-580l-507 0 0 33 507 0 0-33 0 0z m0 138l-507 0 0 34 507 0 0-34 0 0z m0 139l-507 0 0 33 507 0 0-33 0 0z m0 138l-275 0 0 34 275 0 0-34 0 0z m0 139l-275 0 0 33 275 0 0-33 0 0z" horiz-adv-x="750" />
<glyph glyph-name="operation" unicode="&#xe846;" d="m854 704c-195 195-513 195-708 0-195-195-195-512 0-708 195-195 513-195 708 0 195 196 195 513 0 708l0 0z m-636-636c-156 156-156 409 0 564 155 156 409 156 564 0 156-155 156-408 0-564-155-156-409-156-564 0l0 0z m436 26c1 2 0 4-1 5l-67 67 212 212c2 2 2 5 0 7l-80 79c-2 2-5 2-7 0l-212-211-66 66c-2 2-4 2-6 2-2-1-3-3-3-5l0-220c0-2 1-3 1-4 1-1 3-2 4-2l220 0c2 0 4 2 5 4l0 0z m-81 286c2 1 3 2 3 4l0 221c0 2-2 5-5 5l-220 0c-2 0-4-1-5-3-1-2 0-4 1-6l67-67-212-212c-2-1-2-5 0-7l79-79c2-2 6-2 8 0l211 212 67-67c2-2 4-2 6-1l0 0z" horiz-adv-x="1000" />
<glyph glyph-name="non-profit" unicode="&#xe847;" d="m0-6l144-140 167 209-125 147-186-216z m464 241c29 33 108 125 130 151 26 33 40 47 29 102-9 44-16 81-39 178l-244-287 124-144z m-138 420c74 0 138-20 179-51l74 86c-21 82-113 161-255 160-135-1-230-81-254-157l77-89c41 30 106 51 179 51z m-262 19c-23-98-33-133-41-178-11-55 5-69 31-101 21-26 430-503 459-536l131 133-580 682z" horiz-adv-x="650" />
<glyph glyph-name="lawsuits" unicode="&#xe848;" d="m802-64l-21 0 0 21c0 22-18 41-40 41l-427 0c-22 0-40-19-40-41l0-21-21 0c-22 0-40-14-40-31 0-17 18-31 40-31l61 0 427 0 61 0c22 0 40 14 40 31 0 17-18 31-40 31z m-589 593l244 250c16 16 16 43 0 59-16 16-42 16-57 0l-245-250c-15-16-15-42 0-59 16-16 42-16 58 0z m617-73c-15 16-41 16-57 0l-244-250c-16-16-16-42 0-59 16-16 41-16 57 0l244 250c16 16 16 43 0 59z m-100 15l-101 103 15 14c15 16 15 43 0 59l-15 15c-16 16-41 16-57 0l-15-15-86 88-215-220 86-88-330-338c-16-16-16-43 0-59l14-15c16-16 42-16 58 0l330 338 100-103 216 221z" horiz-adv-x="857" />
<glyph glyph-name="immigration" unicode="&#xe849;" d="m697 673l-133 0 0 125c0 29-23 52-52 52-6 0-12-1-18-3l-480-176c0 0 0 0 0 0-2-1-4-2-6-3 0 0-1 0-1-1-1-1-3-3-4-4 0-1 0-1 0-1-1-2-2-4-3-6 0-1 0-1 0-1 0-1 0-2 0-3l0-755c0-12 10-21 21-21l676 0c37 0 67 30 67 66l0 664c0 37-30 67-67 67l0 0z m-146-635l-338 0c-11 0-21-9-21-21 0-11 10-21 21-21l337 0c12 0 22 10 22 21 0 12-10 21-21 21l0 0z m-338 396l337 0c12 0 22 9 22 20l0 77c0 12-10 21-22 21l-337 0c-11 0-21-9-21-21l0-77c0-11 10-20 21-20l0 0z m94-263l-80 0c-25 0-47 16-57 39l115 0 22-39z m-25 87l-148 0c-29 0-54 21-60 48l233 0-25-48z m197-48l115 0c-9-23-31-39-57-39l-80 0 22 39z m-168-43c-1 1-2 2-3 3-3 3-4 4-3 4 1-2-3 3-4 4-1 1-2 2-3 4-1 1-2 3-3 5-1 1-1 2-2 3-1 2-2 5-4 7 0 1 0 1 0 2-6 12-9 26-9 40 0 14 3 27 9 40 0 0 0 1 0 1 2 3 3 5 4 8 1 1 1 1 2 2 1 2 2 4 4 6 0 1 1 2 2 3 1 2 2 3 4 5 1 1 2 2 3 4 1 1 2 2 3 3 19 17 44 28 71 28 27 0 52-10 70-28 2-1 3-2 4-4 1-1 2-2 3-3 1-2 3-3 4-5 1-1 2-2 2-3 2-2 3-4 4-6 1-1 1-1 2-2 1-3 2-5 3-8 1 0 1-1 1-1 6-13 9-26 9-40 0-1-1-3-1-4 0 0 0-1 0-1 0 0 0 0 0-1 0-12-3-23-8-34 0-1 0-1-1-2-1-2-2-5-3-7-1-1-2-2-2-3-1-2-2-4-4-5 0-2-1-3-2-4-1-1-3-3-4-4-1-2-2-3-3-4-1-1-2-2-4-4-18-17-43-28-70-28-27 0-52 11-71 29l0 0z m146 139l233 0c-6-27-31-48-60-48l-148 0-25 48z m107 367l-550 0 550 0z" horiz-adv-x="810" />
<glyph glyph-name="employment" unicode="&#xe84a;" d="m163 667c-47 0-85-36-85-82 0-45 38-131 85-131s85 86 85 131c-1 46-38 82-85 82l0 0 0 0z m95-217c-4-5 10-90-34-146h133c0 0-57 71-64 141-11 4-22 5-35 5l0 0 0 0z m-190 0c-105 0-108-146-108-146h142c-44 56-30 140-34 146l0 0 0 0z m111-29h-30l-16-78 31-38 31 38-16 78 0 0z m652 248l0 0c-47 0-85-36-85-82 0-45 38-131 85-131s85 86 85 131c0 45-38 82-85 82l0 0z m-94-217l0 0c-13 0-25-2-35-5-7-70-64-141-64-141h132c-43 56-29 141-33 146l0 0z m190-1l0 0c-4-6 10-90-34-146h142c-1 1-4 146-108 146l0 0z m-111-29l-16-78 31-38 31 38-16 78h-30l0 0z m-315 251c-86 0-155-67-155-149 0-82 69-240 155-240s155 158 155 240c0 82-69 149-155 149l0 0 0 0z m174-397c-8-10 18-165-62-268h262c1 0 16 268-200 268l0 0 0 0z m-348-1c-192 0-197-267-197-267h259c-80 102-54 257-62 267l0 0 0 0z m203-54h-55l-30-143 57-70 57 70-29 143 0 0z" horiz-adv-x="1000" />
<glyph glyph-name="debt" unicode="&#xe84b;" d="m987-149l-200 0 0 240 200 0 0-240z m-254 0l-200 0 0 373 200 0 0-373z m-253 0l-213 0 0 546 213 0 0-546z m-267 0l-213 0 0 733 213 0 0-733z m756 461l-29 100-48-64-738 502-53-77 735-500-48-65 105 1 105 2-29 101z" horiz-adv-x="1000" />
<glyph glyph-name="business" unicode="&#xe84c;" d="m850 667l226 0c58 0 105-46 105-104l0-162-197 0 0 18c0 29-23 52-52 52-29 0-53-23-53-52l0-18-574 0 0 18c0 29-23 52-52 52-29 0-53-23-53-52l0-18-200 0 0 162c0 58 47 104 105 104l226 0 0 79c0 58 47 104 105 104l309 0c58 0 105-46 105-104l0-79 0 0z m134-318l197 0 0-358c0-57-48-104-108-104l-966 0c-59 0-107 47-107 104l0 358 200 0 0-8c0-29 24-52 53-52 29 0 52 23 52 52l0 8 574 0 0-8c0-29 24-52 53-52 29 0 52 23 52 52l0 8 0 0z m-239 397c0 0 0-79 0-79 0 0-309 0-309 0 0 0 0 79 0 79 0 0 309 0 309 0l0 0z" horiz-adv-x="1222" />
<glyph glyph-name="agreement" unicode="&#xe84d;" d="m561-114l0 107-520 0 0-107 520 0 0 0z m41 480c0 0-87 76-152 181-65 105-88 215-88 296 0 15-41 0-41 0l0-496c25-8 41-26 41-51 0-29-27-51-62-51-31 0-59 22-59 51 0 25 16 43 41 51l0 496c0 0-41 15-41 0 0-80-24-191-90-297-63-104-151-181-151-181l129-289 343 0 130 290 0 0z" horiz-adv-x="636" />
<glyph glyph-name="acquisitions" unicode="&#xe84e;" d="m289 850c-45 0-82-37-82-83 0-46 37-84 82-84 46 0 83 38 83 84 0 46-37 83-83 83l0 0z m685 0c-45 0-82-37-82-83 0-46 37-84 82-84 46 0 82 38 82 84 0 46-36 83-82 83l0 0z m-711-176c-22 0-44-1-65-1-24-1-35-6-44-22l-85-154c-5-10-7-21-5-31l14-122c21 10 45 13 67 18 2 0 4 0 5 0l-10 86c14 22 27 46 40 70l0-169c8-7 14-17 18-27 2-9 13 1 19 1 20 7 49 16 66-3 26-57 34-122 52-182 9-22 14-51-5-68-49-18-100-31-150-43l0-121c0-31 24-56 55-56 27 0 50 19 55 46 4-27 27-46 54-46 31 0 56 25 56 56l0 617 43-64c7-9 16-15 26-19l153-53c19-7 40 4 47 23 6 20-4 41-23 48l-128 44c-33 51-68 102-103 152-8 12-21 17-43 18-38 2-76 2-109 2l0 0z m684 0c-18-1-37-1-56-2-21-1-35-6-43-18-34-50-70-101-103-152l-74-26c7-5 13-10 18-18 12-15 13-34 8-52l98 34c9 4 19 10 25 19l44 64 0-617c0-31 24-56 55-56 27 0 50 19 55 46 4-27 27-46 54-46 31 0 56 25 56 56l0 612c13-24 25-48 39-70l-16-137c-3-21 11-39 32-41 20-3 39 12 41 32l20 164c1 10 0 21-6 31l-85 154c-9 16-20 21-44 22-21 0-42 1-65 1-16 0-34 0-53 0l0 0z m-803-342c-2 0-4 0-5-1l-45-11c-14-4-23-19-19-33l5-22 17 4-5 22c-2 5 1 10 6 11l45 12c5 1 10-1 11-6l6-23 17 5-6 22c-3 13-15 21-27 20l0 0z m110-29l-247-66c-5-1-8-6-7-11l29-110c44-1 90 5 136 17 46 12 89 30 128 52l-28 111c-1 5-6 8-11 7l0 0z m41-126c-39-22-82-40-128-52-46-12-91-18-136-18l19-75c1-5 6-8 11-7l247 66c5 1 8 6 7 11l-20 75 0 0z" horiz-adv-x="1200" />
<glyph glyph-name="delete" unicode="&#xe84f;" d="m503 429l318 309 30 29 58-60-30-29-316-307 329-320 30-29-58-60-30 29-331 322-332-322-30-29-58 60 30 29 330 320-317 307-30 29 58 60 30-29 319-309z" horiz-adv-x="1000" />
<glyph glyph-name="spinner" unicode="&#xe850;" d="m294 72q0-29-21-50t-51-21q-29 0-50 21t-21 50q0 30 21 51t50 21 51-21 21-51z m277-115q0-29-20-50t-51-21-50 21-21 50 21 51 50 21 51-21 20-51z m-392 393q0-30-21-50t-51-21-50 21-21 50 21 51 50 20 51-20 21-51z m670-278q0-29-21-50t-50-21q-30 0-51 21t-21 50 21 51 51 21 50-21 21-51z m-538 556q0-37-26-63t-63-26-63 26-26 63 26 63 63 26 63-26 26-63z m653-278q0-30-21-50t-50-21-51 21-21 50 21 51 51 20 50-20 21-51z m-357 393q0-45-31-76t-76-31-76 31-31 76 31 76 76 31 76-31 31-76z m296-115q0-52-37-89t-88-36q-52 0-89 36t-36 89q0 51 36 88t89 37q51 0 88-37t37-88z" horiz-adv-x="1000" />
<glyph glyph-name="folder" unicode="&#xe851;" d="m954 500q32 0 40-12t6-36l-42-452q-2-24-12-37t-42-13l-806 0q-52 0-56 50l-42 452q-2 24 6 36t40 12l908 0z m-34 110l10-40-846 0 14 132q4 20 20 34t36 14l164 0q52 0 86-34l30-30q32-36 86-36l340 0q20 0 38-12t22-28z" horiz-adv-x="1001" />
<glyph glyph-name="chart-bar" unicode="&#xe852;" d="m357 350v-286h-143v286h143z m214 286v-572h-142v572h142z m572-643v-72h-1143v858h71v-786h1072z m-357 500v-429h-143v429h143z m214 214v-643h-143v643h143z" horiz-adv-x="1142.9" />
<glyph glyph-name="finance" unicode="&#xe853;" d="m630 21c-100 0-185 27-227 66v-57h1c0-37 86-89 226-89 140 0 226 52 226 89h1v57c-42-39-128-66-227-66z m0-108c-100 0-185 27-227 66v-57h1c0-37 86-89 226-89 140 0 226 52 226 89h1v57c-42-39-128-66-227-66z m0 348c130 0 213 45 224 81-9 26-49 81-224 81-175 0-215-55-224-81 11-37 94-81 224-81z m0-131c-100 0-185 27-227 66v-57h1c0-37 86-89 226-89 140 0 226 52 226 89h1v57c-42-40-128-66-227-66z m0 103c-100 0-185 27-227 66v-52h1c0-37 86-89 226-89 140 0 226 52 226 89h1v52c-42-39-128-66-227-66z m-40 240l0 0 1 57c-42-39-127-66-227-66-100 0-185 27-227 66v-57h1c0-37 86-89 226-89 20 0 38 1 56 3 23 18 62 38 134 44 22 15 36 29 36 42z m-198-115c-10-1-18-1-28-1-100 0-185 27-227 66v-57h1c0-37 86-89 226-89 9 0 18 1 27 1l1 74c-1 1-1 3 0 6z m-3-326c-8 0-16-1-25-1-100 0-185 27-227 65v-56h1c0-37 86-89 226-89 9 0 16 1 25 1v36l0 44z m-25 108c-100 0-185 27-227 66v-57h1c0-37 86-89 226-89 9 0 17 1 25 1l1 80c-9-1-18-1-26-1z m0 108c-100 0-185 27-227 66v-57h1c0-37 86-89 226-89 9 0 17 1 26 1l1 80c-10 0-18-1-27-1z m0 456c130 0 213 45 224 81-10 25-50 80-224 80-175 0-215-55-224-80 11-37 94-81 224-81z m0-212c140 0 226 52 226 89h1v57c-42-39-127-66-227-66-100 0-185 27-227 66v-57h1c-1-37 85-89 226-89z m0 109c140 0 226 52 226 89h1v52c-42-39-127-66-227-66-100 0-185 27-227 66v-52h1c-1-37 85-89 226-89z" horiz-adv-x="1000" />
<glyph glyph-name="avatar" unicode="&#xe854;" d="m-245 828c-266 0-482-216-482-482s216-482 482-482 482 216 482 482-216 482-482 482z m284-797c-37 46-109 63-188 150v28c25 29 44 63 57 102 2 6 4 11 5 17 13 7 24 25 26 47 1 7 1 14 0 21-2 11-6 20-11 27 1 21 1 43 0 66-1 18-2 37-4 56-1 5-1 9-2 14-19 112-122 123-160 123-2 0-28 0-30 0-39 0-141-11-160-123-1-4-1-9-2-14-2-20-3-38-4-56-1-23-1-45 0-66-6-6-10-16-11-27-1-7-1-14 0-21 2-22 13-40 26-47 3-12 7-23 11-34 12-32 29-60 51-85v-27 0c-73-80-145-102-182-138-81 76-129 183-129 301 0 233 190 423 423 423s423-190 423-423c0-117-62-237-139-314z" horiz-adv-x="1000" />
<glyph glyph-name="spin4" unicode="&#xe855;" d="m498 850c-114 0-228-39-320-116l0 0c173 140 428 130 588-31 134-134 164-332 89-495-10-29-5-50 12-68 21-20 61-23 84 0 3 3 12 15 15 24 71 180 33 393-112 539-99 98-228 147-356 147z m-409-274c-14 0-29-5-39-16-3-3-13-15-15-24-71-180-34-393 112-539 185-185 479-195 676-31l0 0c-173-140-428-130-589 31-134 134-163 333-89 495 11 29 6 50-12 68-11 11-27 17-44 16z" horiz-adv-x="1001" />
<glyph glyph-name="spin1" unicode="&#xe856;" d="m496 850c-176 0-331-90-421-226-18-27-33-55-46-85-12-29-21-60-28-92 0 0 0-1 0-1l0 0 0 0c0-1 0-2 0-2 0-7 5-12 11-12l101 0c5 0 10 4 11 9 29 113 109 206 214 253 20 10 41 17 63 23 31 7 62 11 95 11l0 0 0 0 0 0c25 0 50-2 74-7 5-1 10-2 14-3 6-1 10-3 14-4l0 0c5-1 11 1 13 6l51 87c0 0 1 1 1 2 2 6-1 13-7 15-22 7-43 13-65 17-5 1-9 1-13 2-27 5-54 7-82 7l0 0 0 0z m327-114c-5 0-9-2-11-6l-50-87c-3-4-2-10 2-14 29-29 54-63 73-101 4-7 7-14 11-22 19-46 30-97 30-151l0 0 0 0c0-77-22-149-62-209-7-11-15-23-24-34-9-10-18-20-28-30l0 0 0 0 0 0c-4-4-5-10-2-14l50-87c0-1 1-2 2-3 4-5 11-5 16-1 58 52 104 117 134 190 6 14 11 29 15 44 14 46 21 94 21 144 0 108-34 209-92 291-11 16-23 31-37 46-13 14-26 28-41 41l0 0c-1 1-1 1-2 1-2 1-4 2-5 2z m-811-468l0 0c-1 0-2 0-3 0-6-1-10-8-9-14 34-166 149-302 302-366 30-12 61-21 93-28 32-6 66-10 100-10l0 0 0 0c40 0 79 5 117 14 7 1 14 3 22 5 6 2 13 5 20 7 1 0 2 1 3 1 6 3 8 10 4 16l-50 87c-3 5-8 7-13 6-14-4-28-7-42-9-3-1-6-1-8-2-18-2-35-3-53-3l0 0 0 0c-128 0-242 63-311 160-1 0-1 0-1 0-13 19-25 40-35 61-10 21-18 43-24 65-1 6-6 10-11 10l-101 0z" horiz-adv-x="1000" />
<glyph glyph-name="lawyer-briefcase" unicode="&#xe857;" d="m692 820c75 0 135-61 135-135s-61-135-135-135-135 60-135 134 60 136 135 136z m-238-804l-105 278-1 2c-3 5-8 9-14 9h-150v40l0 4h-47v-44h-150c-6 0-11-3-14-8l-106-281c-1-2-1-4 0-7 0-2 1-4 2-5l1-2c1-1 2-3 3-3 2-2 45-53 114-53 67 0 112 50 113 52 1 1 3 2 4 4l1 1c1 2 2 3 2 6 0 2 0 4-1 7l-96 257h127v-354h-85v-47h216v47h-84l0 354h127l-97-258c-1-2-1-4 0-7 0-2 1-4 3-6 1-1 2-3 3-3 2-2 47-53 114-53 68 0 112 51 113 52 2 1 3 2 3 3l2 2c1 2 2 4 2 7 1 2 1 3 0 6z m-38 10h-163l82 218 81-218z m-429 218l82-218h-163l81 218z m1055-33v108c0 95-70 187-181 187h-55l-85-188v192h-59v-190l-84 186-515 1c-86 0-87-124-1-124h435l0-511h264v0h374v339h-93z m-147 99h35v-98h-35l0 98z m-121-133h156v-135h-156v135z m326-270h-326v100h156v-7c0-86 112-86 111 0v7h59l0-100 0 0z m0 134h-59v136h59v-136z" horiz-adv-x="1000" />
<glyph glyph-name="repeat" unicode="&#xe858;" d="m929 279h-157c0-147-119-266-266-266s-266 120-266 266 119 266 266 266v-141l266 220-266 220v-141c-233 0-423-190-423-423s190-423 423-423 423 189 423 422z" horiz-adv-x="1000" />
<glyph glyph-name="project" unicode="&#xe859;" d="m91-135v838l58 58v-839l-58-57z m78 78l48 48v839l-48-48v-839z m-6-34l-58-58h643l58 58h-643z m660 17l51 51h-642l-48-48h640v-3z m62 914v-843h-647v843h647z m-488-302c0-90 74-164 164-164 90 0 164 74 164 164 0 90-74 164-164 164-90 0-164-73-164-164z m259-401h-190v-20h190v20z m81 93h-351v-20h351v20z m-87 333l-14 14-90-90-59 59-14-14 73-73 104 104z" horiz-adv-x="1000" />
<glyph glyph-name="money-saving" unicode="&#xe85a;" d="m508 595l0 18c0 0 12 2 17 3 5 2 10 5 15 8 3 3 7 8 10 13 2 5 3 10 3 17 0 8-2 17-7 22-5 5-12 10-20 12l-18 7 0 30c0 0 8-2 12-2 3-2 7-3 10-5l18 22c-5 5-12 7-18 10-7 2-20 3-20 3l0 8-17 0 0-12c0 0-8-2-13-3-5-2-8-5-13-8-3-3-7-7-8-12-2-5-3-10-3-17 0-10 3-17 8-22 5-5 10-10 20-13l12-3 0-31c0 0-8 2-13 3-5 2-8 5-12 8l-22-23c7-5 12-10 20-12 8-2 24-3 24-3l0-18 15 0 0 0z m0 73l3-2c2 0 3-2 5-2 2 0 3-2 3-2 2-2 2-2 3-3 0-2 2-3 2-5 0-2 0-3-2-5-2-2-2-3-3-3-2-2-3-2-5-3-2 0-3-2-5-2l0 27-1 0z m-17 30c-2 0-3 2-5 2-2 2-3 2-3 3-2 2-2 3-2 7 0 3 2 7 3 8 3 2 7 3 10 3l0-27c1 4-1 4-3 4l0 0z m172-20c0 88-72 160-161 160s-162-72-162-160 72-160 161-160 162 72 162 160l0 0z m-291 0c0 70 57 126 128 126s128-57 128-126-58-127-128-127-128 57-128 127l0 0z m504-385l-32 0c-8 23-30 73-82 121l-25 20c2 32 25 90 35 111l13 32-33-7c-3-2-86-22-131-82-37 10-76 15-119 15-166 0-309-92-346-220-37 8-66 42-66 80 0 45 45 83 79 83l0 34c-50 0-113-52-113-116 0-55 40-100 92-111-2-12-3-22-3-33 0-82 42-156 116-211l-27-73c-8-23 3-50 27-58l54-20c5-2 10-3 15-3 7 0 13 2 18 5 12 5 20 15 24 25l24 62c64-15 134-17 198-2l22-60c5-12 13-20 24-25 12-5 24-5 35-2l54 20c12 5 20 13 25 23 5 12 5 23 2 35l-26 66c49 25 79 58 101 97l49 2c25 0 49 22 49 45l0 100c-1 24-26 47-53 47z m-289 69c-8 18-39 28-86 28-32 0-74-7-86-30l-30 15c15 33 54 48 116 48 77 0 106-27 116-48l-30-13z m121-114c-19 0-35 16-35 35 0 19 16 35 35 35 19 0 35-16 35-35 0-19-15-35-35-35z" horiz-adv-x="1000" />
<glyph glyph-name="upcounsel-1" unicode="&#xe85b;" d="m209 839h287v-283h310v-506c0-3-3-7-7-7h-283l-230-183 28 183h-105c-3 0-7 3-7 7v782c1 3 4 7 7 7z m324-9l264-240h-264v240z" horiz-adv-x="1000" />
<glyph glyph-name="lawfirm" unicode="&#xe85c;" d="m959-93h-16v560h-208v176h-80v96h-128v80c0 9-7 16-16 16-9 0-16-7-16-16v-80h-128v-96h-112v-176h-208v-560h-16c-9 0-16-7-16-16s7-16 16-16h16 208 32 416 32 208 16c9 0 16 7 16 16s-7 16-16 16z m-816 48c0-9-7-16-16-16-9 0-16 7-16 16v432c0 9 7 16 16 16 9 0 16-7 16-16v-432z m80 0c0-9-7-16-16-16-9 0-16 7-16 16v432c0 9 7 16 16 16 9 0 16-7 16-16v-432z m128 0c0-9-7-16-16-16s-16 7-16 16v608c0 9 7 16 16 16s16-7 16-16v-608z m80 0c0-9-7-16-16-16s-16 7-16 16v608c0 9 7 16 16 16s16-7 16-16v-608z m80 0c0-9-7-16-16-16s-16 7-16 16v608c0 9 7 16 16 16s16-7 16-16v-608z m80 0c0-9-7-16-16-16s-16 7-16 16v608c0 9 7 16 16 16s16-7 16-16v-608z m80 0c0-9-7-16-16-16s-16 7-16 16v608c0 9 7 16 16 16s16-7 16-16v-608z m128 0c0-9-7-16-16-16-9 0-16 7-16 16v432c0 9 7 16 16 16 9 0 16-7 16-16v-432z m80 0c0-9-7-16-16-16-9 0-16 7-16 16v432c0 9 7 16 16 16 9 0 16-7 16-16v-432z" horiz-adv-x="1000" />
<glyph glyph-name="bookmark" unicode="&#xe85d;" d="m983 823v-957l-478 442-478-441v956h956z" horiz-adv-x="1000" />
<glyph glyph-name="getproposals" unicode="&#xe85e;" d="m111-135v838l58 58v-839l-58-57z m78 78l48 48v839l-48-48v-839z m-6-34l-58-58h643l58 58h-643z m660 17l51 51h-642l-48-48h640v-3z m62 914v-843h-647v843h647z m-488-302c0-90 74-164 164-164 90 0 164 74 164 164 0 90-74 164-164 164-90 0-164-73-164-164z m259-401h-190v-20h190v20z m81 93h-351v-20h351v20z m-87 333l-14 14-90-90-59 59-14-14 73-73 104 104z" horiz-adv-x="1000" />
<glyph glyph-name="post-job" unicode="&#xe85f;" d="m439 835c-13-1-23-11-23-24v-106c0-13 11-24 24-24 0 0 0 0 0 0 13 0 24 11 24 24v106c0 13-11 24-25 24 1 0 0 0 0 0z m-150-63c-13 0-24-11-24-24 0-6 3-13 7-17l75-75c9-9 25-9 34 0 0 0 0 0 0 0v0c9 9 9 24 0 33l-56 56-19 19c-3 3-8 6-12 7-2 1-3 2-5 1z m301 0c-1 0-1 0-2 0-5-1-10-3-14-7l-19-19-55-55c-9-9-9-24 0-33v0c9-10 24-10 34-1 0 0 0 0 0 0l75 75c9 9 10 24 0 34-5 4-12 7-19 6z m-150-121c-31 0-56-25-56-56v-341c-19 22-45 50-61 61-13 9-27 16-42 16-26 0-47-19-50-45-3-33 15-61 32-86 20-30 41-64 57-92 15-25 30-51 46-75 24-38 25-69 27-113 1-15 1-32 1-46 0-4 4-8 8-8h320c4 0 7 3 8 7 6 30 8 63 18 92 26 77 50 154 49 247 0 56 0 99 0 154 0 31-25 56-56 56-15 0-27-3-45-22 0 31-25 56-56 56-19 0-35-9-45-23-3 26-26 47-55 47-18 0-35-9-45-23v138c1 30-24 56-55 56z m-216-30c-13-1-24-12-23-25 1-13 12-24 25-23h105c13 0 24 11 24 24 0 0 0 0 0 0 0 13-11 24-24 24 0 0 0 0 0 0h-104c-1 0-2 0-3 0z m322 0c-12-1-22-11-22-24 0-13 11-24 24-24 0 0 0 0 0 0h105c13 0 24 11 24 24s-11 24-24 24h-104c-1 0-2 0-3 0z" horiz-adv-x="1000" />
<glyph glyph-name="handshake" unicode="&#xe860;" d="m525 431c-2-1-4-2-6-3l5 2c0 1 0 1 1 1l0 0z m20-375l0 0-1-1c-11-14-32-17-46-5l-7 5-7 6c1 1 1 3 2 4l22 63c1-1 2-2 3-2 2-2 5-4 7-5 1-1 2-2 3-3 1-1 3-2 4-4 1-1 2-1 2-2 2-2 4-3 6-4 4-3 6-5 6-5 15-12 18-32 6-47l0 0z m267 114l-1-1c-11-14-32-17-46-5 0 0-2 2-6 5-9 7-29 23-53 42-3 3-6 5-10 8-9 7-18 14-28 22-1 1-2 2-4 3-5 4-11 9-16 13-53 42-107 84-110 87-10 8-20-5-10-13 5-4 59-47 108-85 1-1 3-2 4-3 3-2 6-5 9-7 4-3 7-6 11-9 2-1 3-3 5-4 13-10 24-19 33-26 2-2 4-3 5-4 2-2 4-3 6-5 1-1 2-1 3-2 0 0 0 0 0 0 0 0 0 0 0 0 4-3 7-5 7-5 14-11 17-32 5-47l0 0 0 0 0 0c-11-14-32-17-46-5 0 0-2 1-5 4 0 0-1 1-2 1 0 0 0 0 0 0-1 1-2 1-2 2 0 0-1 1-1 1 0 0-1 1-1 1-1 1-2 2-4 3 0 0 0 0-1 1-3 3-7 6-11 9-1 1-2 2-3 2-2 2-4 3-6 5-2 2-4 3-7 5-2 2-4 3-6 5-13 10-27 22-42 33-46 36-94 75-99 79-10 8-21-5-11-13 6-5 56-45 97-77 4-3 7-6 11-9 3-2 6-5 9-7 3-2 5-4 8-6 4-3 8-6 12-9 1-1 3-2 4-3 1-1 1-1 2-2 1-1 2-2 3-3 2-2 4-3 5-4 3-3 5-4 5-4 14-11 17-32 5-47l0-1 0 0 0 0c-11-14-32-17-46-5 0 0-2 1-5 4 0 0-1 1-1 1 0 0 0 0 0 0-1 1-3 2-4 3-8 6-19 15-31 25-3 2-6 5-9 7-5 4-10 8-16 13-4 3-7 6-11 9 1 8-1 16-5 24-5 11-15 20-27 24-5 2-10 3-15 3-5 0-9-1-14-2-8 6-13 11-16 13 0 1-1 3-2 4-5 11-15 20-27 24-5 2-10 2-15 2-15 0-29-7-37-19-4 15-14 28-30 33-5 2-10 2-15 2-16 0-30-8-38-20-4 15-15 27-30 32-5 2-10 3-15 3-20 0-37-13-44-31l0-1c-3 1-6 2-8 3l-105 61c-4 2-5 8-3 12l112 203c2 4 8 6 12 4l53-21c4-2 11-2 16-1l127 41c4 1 12 2 16 1l10-2c5-1 5-4 1-7l-14-10c0 0 0 0 0 0-29-22-69-51-87-63-18-12-26-31-20-50 7-24 33-42 62-42 9 0 19 2 28 6 27 11 67 28 100 42 0 0 1 0 1 0l12 5c8 3 15 6 22 9l5 2c0 0 1 0 1 0l0 0c4 1 10 0 13-2l36-29c4-3 10-8 13-10l112-88 100-79 7-5c14-18 16-39 5-53l0 0z m-273-45c-5 4-10 8-16 13l0 0c6-4 11-8 16-13l0 0z m102 115c-1 1-3 2-4 3l0 0c1-1 2-2 4-3l0 0z m-203 289c4 3 10 6 15 8l123 40c4 1 11 1 16-1l158-77c4-2 11-2 16-1l53 21c4 2 10 0 12-4l112-203c2-4 1-10-3-12l-104-76c-4-3-10-3-13 0l-280 223c-4 3-10 4-14 2 0 0-97-41-151-64-49-20-95 34-55 60 31 21 115 84 115 84l0 0z m39-347c18-6 27-25 21-43l-24-70c-6-18-25-27-43-21l0 0c-18 6-27 25-21 43l24 70c6 18 26 28 43 21l0 0 0 0z m-73 41c18-6 27-26 21-43l-24-70c-6-18-25-27-43-21l0 0c-18 6-27 25-21 43l24 70c6 18 25 28 43 21l0 0 0 0z m-82 17c18-6 27-26 21-43l-14-42c-6-18-25-27-43-21l0 0c-18 6-27 26-21 43l14 42c6 18 25 27 43 21l0 0 0 0z m-83 15c18-6 27-26 21-43l-5-15c-6-18-25-27-43-21l0 0c-18 6-27 26-21 43l5 15c6 17 25 27 43 21l0 0 0 0z m921 155c3-6 1-14-5-18l-159-87c-6-3-14-1-18 5l-120 221c-3 6-1 14 5 18l159 87c6 3 14 1 18-5l120-221 0 0z m-1310 0c-3-6-1-14 5-18l159-87c6-3 14-1 18 5l120 221c3 6 1 14-5 18l-159 87c-6 3-14 1-18-5l-120-221 0 0z" horiz-adv-x="1000" />
<glyph glyph-name="thumbsup" unicode="&#xe861;" d="m987 243c-8 14-9 26-8 38 2 8 5 16 7 23 3 9 11 31 12 60 3 38-29 69-70 69h-227c-38 0-69 35-69 73 0 38 49 120 53 211 7 141-136 126-136 126l0 0c0 0-22-10-22-26v-87c0-51-27-106-61-154-29-41-67-94-94-121-28-22-59-52-97-52v-507c0 0 63-32 158-32h353c5 0 137-5 120 107-5 34 86 59 66 120-25 72 61 74 15 152z m-978 197v-569h221v569h-221z m110-521c-14 0-25 11-25 25s11 25 25 25 25-11 25-25c0-14-11-25-25-25z" horiz-adv-x="1000" />
<glyph glyph-name="pie-chart" unicode="&#xe862;" d="m848 718c-78 79-185 127-304 127v-433l304 306 0 0z m-353 4v-433l304 306c78-78 126-187 126-306 0-239-193-433-430-433s-430 194-430 433 192 433 430 433l0 0z" horiz-adv-x="1000" />
<glyph glyph-name="bullet-point" unicode="&#xe863;" d="m500-140c-28 0-55 2-82 7l7 39c31-5 64-7 95-6l2-40c-8 0-15 0-22 0z m124 16l-10 39c31 8 61 19 89 34l18-36c-31-16-63-29-97-37z m-307 19c-32 13-63 29-92 49l22 33c26-18 55-33 84-45l-14-37z m492 74l-25 31c25 20 48 43 68 68l31-25c-23-27-47-52-74-74z m-663 42c-24 25-45 53-64 82l34 21c17-27 36-52 59-76l-29-27z m793 119l-36 18c14 28 26 59 34 89l39-10c-9-33-22-66-37-97z m-902 57c-12 33-20 67-24 101l40 5c4-32 11-63 22-93l-38-13z m954 143l-40 2c0 6 0 13 0 19 0 26-2 51-6 77l39 7c5-27 7-55 7-83 0-8 0-15 0-22z m-942 21h-40c0 35 4 70 11 103l39-8c-7-31-10-63-10-95z m870 168c-12 30-27 58-45 84l33 22c20-29 36-60 49-92l-37-14z m-830 18l-36 16c14 32 32 62 53 90l32-24c-20-26-36-53-49-82z m723 140c-23 22-48 42-76 58l21 34c30-18 57-40 82-64l-27-28z m-610 12l-26 30c26 23 55 43 85 60l20-35c-29-15-55-33-79-55z m448 87c-30 11-61 18-93 22l5 40c34-4 69-12 101-24l-13-38z m-282 6l-12 38c33 10 67 17 102 20l3-40c-31-2-63-8-93-18z m132-759c180 0 327 147 327 327s-147 327-327 327-327-147-327-327 147-327 327-327z" horiz-adv-x="1000" />
<glyph glyph-name="reply" unicode="&#xe864;" d="m900 10q-86 152-208 197t-330 45l0-218-362 334 362 322 0-192q90 0 168-27t131-70 96-95 69-104 44-95 24-69z" horiz-adv-x="900" />
<glyph glyph-name="trash" unicode="&#xe865;" d="m0 633l0 141 289 0 0 76 246 0 0-76 289 0 0-141-824 0z m43-783l0 676 738 0 0-676-738 0z" horiz-adv-x="824" />
<glyph glyph-name="edit" unicode="&#xe866;" d="m985 691l-68-68c-8-8-21-8-29 0l-115 115c-8 8-8 21 0 29l68 68c18 18 47 18 65 0l79-79c17-18 17-47 0-65l0 0z m-122-116l-376-376c-8-13-21-13-29-5l-115 114c-8 8-8 21 0 29l376 376c8 8 21 8 29 0l115-115c8-8 8-21 0-23l0 0z m-439-429l-164-56-3-1c-5-1-10 0-14 4-4 4-5 9-4 14l1 3 56 163 1 3c1 2 2 3 3 4 6 6 16 6 22 0l109-109c6-6 6-16 0-22-1-1-3-2-4-3l-3 0 0 0z m110 530h-429v-721h721v429c0 28 23 52 52 52 28 0 52-23 52-52v-481c0-7-1-14-4-20-8-18-26-31-47-31l0 0h-825c-28 0-52 23-52 52v824c0 28 23 52 52 52h481c28 0 52-23 52-52-1-29-24-52-53-52l0 0z" horiz-adv-x="1000" />
<glyph glyph-name="help-circled" unicode="&#xe867;" d="m500 82v107q0 8-5 13t-13 5h-107q-8 0-13-5t-5-13v-107q0-8 5-13t13-5h107q8 0 13 5t5 13z m143 375q0 49-31 91t-77 65-95 23q-136 0-207-119-9-14 4-24l74-55q4-4 10-4 9 0 14 7 30 38 48 51 19 14 48 14 27 0 48-15t21-33q0-21-11-34t-38-25q-35-16-65-48t-29-70v-20q0-8 5-13t13-5h107q8 0 13 5t5 13q0 10 12 27t30 28q18 10 28 16t25 19 25 27 16 34 7 45z m214-107q0-117-57-215t-156-156-215-58-216 58-155 156-58 215 58 215 155 156 216 58 215-58 156-156 57-215z" horiz-adv-x="857.1" />
</font>
</defs>
</svg>
